<svg width="72" height="46" viewBox="0 0 72 46" fill="none" xmlns="http://www.w3.org/2000/svg">
<path d="M34.016 45L11.246 21.966L32.762 0.12H26.03L6.494 20.382H6.296V0.12H0.95V45H6.296V24.474H6.494L26.624 45H34.016ZM43.0111 45V39.588C45.7171 43.086 49.8751 45.528 54.9571 45.528C64.3951 45.528 71.7871 38.136 71.7871 28.698C71.7871 19.26 64.6591 12 55.2211 12C50.1391 12 45.9151 14.442 43.1431 17.874V0.12H38.1271V45H43.0111ZM54.8911 40.842C48.3571 40.842 43.0771 35.694 43.0771 28.764C43.0771 21.834 48.3571 16.62 54.8911 16.62C61.4251 16.62 66.6391 22.032 66.6391 28.764C66.6391 35.496 61.4251 40.842 54.8911 40.842Z" fill="#240202"/>
</svg>
