<svg width="391" height="377" viewBox="0 0 391 377" fill="none" xmlns="http://www.w3.org/2000/svg">
<path d="M155.55 0.182129H148.711V6.76951H155.55V0.182129Z" fill="#CEFD35"/>
<path d="M155.55 12.0393H148.711V18.6267H155.55V12.0393Z" fill="#CEFD35"/>
<path d="M155.55 191.028H148.711V197.615H155.55V191.028Z" fill="#CEFD35"/>
<path d="M155.55 203.074H148.711V209.661H155.55V203.074Z" fill="#CEFD35"/>
<path d="M353.701 191.028H346.861V197.615H353.701V191.028Z" fill="#CEFD35"/>
<path d="M353.701 203.074H346.861V209.661H353.701V203.074Z" fill="#CEFD35"/>
<path d="M353.701 0.182129H346.861V6.76951H353.701V0.182129Z" fill="#CEFD35"/>
<path d="M353.701 12.0393H346.861V18.6267H353.701V12.0393Z" fill="#CEFD35"/>
<path d="M155.55 95.6052H148.711V102.193H155.55V95.6052Z" fill="#CEFD35"/>
<path d="M155.55 107.651H148.711V114.238H155.55V107.651Z" fill="#CEFD35"/>
<path d="M155.55 286.451H148.711V293.039H155.55V286.451Z" fill="#CEFD35"/>
<path d="M155.55 298.497H148.711V305.084H155.55V298.497Z" fill="#CEFD35"/>
<path d="M353.701 286.451H346.861V293.039H353.701V286.451Z" fill="#CEFD35"/>
<path d="M353.701 298.497H346.861V305.084H353.701V298.497Z" fill="#CEFD35"/>
<path d="M353.701 95.6052H346.861V102.193H353.701V95.6052Z" fill="#CEFD35"/>
<path d="M353.701 107.651H346.861V114.238H353.701V107.651Z" fill="#CEFD35"/>
<path d="M155.55 24.085H148.711V30.6723H155.55V24.085Z" fill="#CEFD35"/>
<path d="M155.55 35.9421H148.711V42.5295H155.55V35.9421Z" fill="#CEFD35"/>
<path d="M155.55 214.931H148.711V221.518H155.55V214.931Z" fill="#CEFD35"/>
<path d="M155.55 226.788H148.711V233.375H155.55V226.788Z" fill="#CEFD35"/>
<path d="M353.701 214.931H346.861V221.518H353.701V214.931Z" fill="#CEFD35"/>
<path d="M353.701 226.788H346.861V233.375H353.701V226.788Z" fill="#CEFD35"/>
<path d="M353.701 24.085H346.861V30.6723H353.701V24.085Z" fill="#CEFD35"/>
<path d="M353.701 35.9421H346.861V42.5295H353.701V35.9421Z" fill="#CEFD35"/>
<path d="M155.55 119.508H148.711V126.095H155.55V119.508Z" fill="#CEFD35"/>
<path d="M155.55 131.365H148.711V137.953H155.55V131.365Z" fill="#CEFD35"/>
<path d="M155.55 310.354H148.711V316.941H155.55V310.354Z" fill="#CEFD35"/>
<path d="M155.55 322.399H148.711V328.987H155.55V322.399Z" fill="#CEFD35"/>
<path d="M353.701 310.354H346.861V316.941H353.701V310.354Z" fill="#CEFD35"/>
<path d="M353.701 322.399H346.861V328.987H353.701V322.399Z" fill="#CEFD35"/>
<path d="M353.701 119.508H346.861V126.095H353.701V119.508Z" fill="#CEFD35"/>
<path d="M353.701 131.365H346.861V137.953H353.701V131.365Z" fill="#CEFD35"/>
<path d="M155.55 47.9878H148.711V54.5752H155.55V47.9878Z" fill="#CEFD35"/>
<path d="M155.55 59.845H148.711V66.4324H155.55V59.845Z" fill="#CEFD35"/>
<path d="M155.55 238.834H148.711V245.421H155.55V238.834Z" fill="#CEFD35"/>
<path d="M155.55 250.691H148.711V257.278H155.55V250.691Z" fill="#CEFD35"/>
<path d="M353.701 238.834H346.861V245.421H353.701V238.834Z" fill="#CEFD35"/>
<path d="M353.701 250.691H346.861V257.278H353.701V250.691Z" fill="#CEFD35"/>
<path d="M353.701 47.9878H346.861V54.5752H353.701V47.9878Z" fill="#CEFD35"/>
<path d="M353.701 59.845H346.861V66.4324H353.701V59.845Z" fill="#CEFD35"/>
<path d="M155.55 143.411H148.711V149.998H155.55V143.411Z" fill="#CEFD35"/>
<path d="M155.55 155.268H148.711V161.855H155.55V155.268Z" fill="#CEFD35"/>
<path d="M155.55 334.257H148.711V340.844H155.55V334.257Z" fill="#CEFD35"/>
<path d="M155.55 346.114H148.711V352.701H155.55V346.114Z" fill="#CEFD35"/>
<path d="M353.701 334.257H346.861V340.844H353.701V334.257Z" fill="#CEFD35"/>
<path d="M353.701 346.114H346.861V352.701H353.701V346.114Z" fill="#CEFD35"/>
<path d="M353.701 143.411H346.861V149.998H353.701V143.411Z" fill="#CEFD35"/>
<path d="M353.701 155.268H346.861V161.855H353.701V155.268Z" fill="#CEFD35"/>
<path d="M155.55 71.7024H148.711V78.2898H155.55V71.7024Z" fill="#CEFD35"/>
<path d="M155.55 83.7478H148.711V90.3352H155.55V83.7478Z" fill="#CEFD35"/>
<path d="M155.55 262.737H148.711V269.324H155.55V262.737Z" fill="#CEFD35"/>
<path d="M155.55 274.594H148.711V281.181H155.55V274.594Z" fill="#CEFD35"/>
<path d="M353.701 262.737H346.861V269.324H353.701V262.737Z" fill="#CEFD35"/>
<path d="M353.701 274.594H346.861V281.181H353.701V274.594Z" fill="#CEFD35"/>
<path d="M353.701 71.7024H346.861V78.2898H353.701V71.7024Z" fill="#CEFD35"/>
<path d="M353.701 83.7478H346.861V90.3352H353.701V83.7478Z" fill="#CEFD35"/>
<path d="M155.55 167.125H148.711V173.713H155.55V167.125Z" fill="#CEFD35"/>
<path d="M155.55 179.171H148.711V185.758H155.55V179.171Z" fill="#CEFD35"/>
<path d="M155.55 358.159H148.711V364.747H155.55V358.159Z" fill="#CEFD35"/>
<path d="M155.55 370.017H148.711V376.604H155.55V370.017Z" fill="#CEFD35"/>
<path d="M353.701 358.159H346.861V364.747H353.701V358.159Z" fill="#CEFD35"/>
<path d="M353.701 370.017H346.861V376.604H353.701V370.017Z" fill="#CEFD35"/>
<path d="M353.701 167.125H346.861V173.713H353.701V167.125Z" fill="#CEFD35"/>
<path d="M353.701 179.171H346.861V185.758H353.701V179.171Z" fill="#CEFD35"/>
<path d="M167.861 0.182129H161.021V6.76951H167.861V0.182129Z" fill="#CEFD35"/>
<path d="M167.861 12.0393H161.021V18.6267H167.861V12.0393Z" fill="#CEFD35"/>
<path d="M167.861 191.028H161.021V197.615H167.861V191.028Z" fill="#CEFD35"/>
<path d="M167.861 203.074H161.021V209.661H167.861V203.074Z" fill="#CEFD35"/>
<path d="M366.011 191.028H359.172V197.615H366.011V191.028Z" fill="#CEFD35"/>
<path d="M366.011 203.074H359.172V209.661H366.011V203.074Z" fill="#CEFD35"/>
<path d="M366.011 0.182129H359.172V6.76951H366.011V0.182129Z" fill="#CEFD35"/>
<path d="M366.011 12.0393H359.172V18.6267H366.011V12.0393Z" fill="#CEFD35"/>
<path d="M167.861 95.6052H161.021V102.193H167.861V95.6052Z" fill="#CEFD35"/>
<path d="M167.861 107.651H161.021V114.238H167.861V107.651Z" fill="#CEFD35"/>
<path d="M167.861 286.451H161.021V293.039H167.861V286.451Z" fill="#CEFD35"/>
<path d="M167.861 298.497H161.021V305.084H167.861V298.497Z" fill="#CEFD35"/>
<path d="M366.011 286.451H359.172V293.039H366.011V286.451Z" fill="#CEFD35"/>
<path d="M366.011 298.497H359.172V305.084H366.011V298.497Z" fill="#CEFD35"/>
<path d="M366.011 95.6052H359.172V102.193H366.011V95.6052Z" fill="#CEFD35"/>
<path d="M366.011 107.651H359.172V114.238H366.011V107.651Z" fill="#CEFD35"/>
<path d="M167.861 24.085H161.021V30.6723H167.861V24.085Z" fill="#CEFD35"/>
<path d="M167.861 35.9421H161.021V42.5295H167.861V35.9421Z" fill="#CEFD35"/>
<path d="M167.861 214.931H161.021V221.518H167.861V214.931Z" fill="#CEFD35"/>
<path d="M167.861 226.788H161.021V233.375H167.861V226.788Z" fill="#CEFD35"/>
<path d="M366.011 214.931H359.172V221.518H366.011V214.931Z" fill="#CEFD35"/>
<path d="M366.011 226.788H359.172V233.375H366.011V226.788Z" fill="#CEFD35"/>
<path d="M366.011 24.085H359.172V30.6723H366.011V24.085Z" fill="#CEFD35"/>
<path d="M366.011 35.9421H359.172V42.5295H366.011V35.9421Z" fill="#CEFD35"/>
<path d="M167.861 119.508H161.021V126.095H167.861V119.508Z" fill="#CEFD35"/>
<path d="M167.861 131.365H161.021V137.953H167.861V131.365Z" fill="#CEFD35"/>
<path d="M167.861 310.354H161.021V316.941H167.861V310.354Z" fill="#CEFD35"/>
<path d="M167.861 322.399H161.021V328.987H167.861V322.399Z" fill="#CEFD35"/>
<path d="M366.011 310.354H359.172V316.941H366.011V310.354Z" fill="#CEFD35"/>
<path d="M366.011 322.399H359.172V328.987H366.011V322.399Z" fill="#CEFD35"/>
<path d="M366.011 119.508H359.172V126.095H366.011V119.508Z" fill="#CEFD35"/>
<path d="M366.011 131.365H359.172V137.953H366.011V131.365Z" fill="#CEFD35"/>
<path d="M167.861 47.9878H161.021V54.5752H167.861V47.9878Z" fill="#CEFD35"/>
<path d="M167.861 59.845H161.021V66.4324H167.861V59.845Z" fill="#CEFD35"/>
<path d="M167.861 238.834H161.021V245.421H167.861V238.834Z" fill="#CEFD35"/>
<path d="M167.861 250.691H161.021V257.278H167.861V250.691Z" fill="#CEFD35"/>
<path d="M366.011 238.834H359.172V245.421H366.011V238.834Z" fill="#CEFD35"/>
<path d="M366.011 250.691H359.172V257.278H366.011V250.691Z" fill="#CEFD35"/>
<path d="M366.011 47.9878H359.172V54.5752H366.011V47.9878Z" fill="#CEFD35"/>
<path d="M366.011 59.845H359.172V66.4324H366.011V59.845Z" fill="#CEFD35"/>
<path d="M167.861 143.411H161.021V149.998H167.861V143.411Z" fill="#CEFD35"/>
<path d="M167.861 155.268H161.021V161.855H167.861V155.268Z" fill="#CEFD35"/>
<path d="M167.861 334.257H161.021V340.844H167.861V334.257Z" fill="#CEFD35"/>
<path d="M167.861 346.114H161.021V352.701H167.861V346.114Z" fill="#CEFD35"/>
<path d="M366.011 334.257H359.172V340.844H366.011V334.257Z" fill="#CEFD35"/>
<path d="M366.011 346.114H359.172V352.701H366.011V346.114Z" fill="#CEFD35"/>
<path d="M366.011 143.411H359.172V149.998H366.011V143.411Z" fill="#CEFD35"/>
<path d="M366.011 155.268H359.172V161.855H366.011V155.268Z" fill="#CEFD35"/>
<path d="M167.861 71.7024H161.021V78.2898H167.861V71.7024Z" fill="#CEFD35"/>
<path d="M167.861 83.7478H161.021V90.3352H167.861V83.7478Z" fill="#CEFD35"/>
<path d="M167.861 262.737H161.021V269.324H167.861V262.737Z" fill="#CEFD35"/>
<path d="M167.861 274.594H161.021V281.181H167.861V274.594Z" fill="#CEFD35"/>
<path d="M366.011 262.737H359.172V269.324H366.011V262.737Z" fill="#CEFD35"/>
<path d="M366.011 274.594H359.172V281.181H366.011V274.594Z" fill="#CEFD35"/>
<path d="M366.011 71.7024H359.172V78.2898H366.011V71.7024Z" fill="#CEFD35"/>
<path d="M366.011 83.7478H359.172V90.3352H366.011V83.7478Z" fill="#CEFD35"/>
<path d="M167.861 167.125H161.021V173.713H167.861V167.125Z" fill="#CEFD35"/>
<path d="M167.861 179.171H161.021V185.758H167.861V179.171Z" fill="#CEFD35"/>
<path d="M167.861 358.159H161.021V364.747H167.861V358.159Z" fill="#CEFD35"/>
<path d="M167.861 370.017H161.021V376.604H167.861V370.017Z" fill="#CEFD35"/>
<path d="M366.011 358.159H359.172V364.747H366.011V358.159Z" fill="#CEFD35"/>
<path d="M366.011 370.017H359.172V376.604H366.011V370.017Z" fill="#CEFD35"/>
<path d="M366.011 167.125H359.172V173.713H366.011V167.125Z" fill="#CEFD35"/>
<path d="M366.011 179.171H359.172V185.758H366.011V179.171Z" fill="#CEFD35"/>
<path d="M180.174 0.182129H173.334V6.76951H180.174V0.182129Z" fill="#CEFD35"/>
<path d="M180.172 12.0393H173.332V18.6267H180.172V12.0393Z" fill="#CEFD35"/>
<path d="M180.172 191.028H173.332V197.615H180.172V191.028Z" fill="#CEFD35"/>
<path d="M180.172 203.074H173.332V209.661H180.172V203.074Z" fill="#CEFD35"/>
<path d="M378.519 191.028H371.68V197.615H378.519V191.028Z" fill="#CEFD35"/>
<path d="M378.519 203.074H371.68V209.661H378.519V203.074Z" fill="#CEFD35"/>
<path d="M378.519 0.182129H371.68V6.76951H378.519V0.182129Z" fill="#CEFD35"/>
<path d="M378.519 12.0393H371.68V18.6267H378.519V12.0393Z" fill="#CEFD35"/>
<path d="M180.172 95.6052H173.332V102.193H180.172V95.6052Z" fill="#CEFD35"/>
<path d="M180.172 107.651H173.332V114.238H180.172V107.651Z" fill="#CEFD35"/>
<path d="M180.172 286.451H173.332V293.039H180.172V286.451Z" fill="#CEFD35"/>
<path d="M180.172 298.497H173.332V305.084H180.172V298.497Z" fill="#CEFD35"/>
<path d="M378.519 286.451H371.68V293.039H378.519V286.451Z" fill="#CEFD35"/>
<path d="M378.519 298.497H371.68V305.084H378.519V298.497Z" fill="#CEFD35"/>
<path d="M378.519 95.6052H371.68V102.193H378.519V95.6052Z" fill="#CEFD35"/>
<path d="M378.519 107.651H371.68V114.238H378.519V107.651Z" fill="#CEFD35"/>
<path d="M180.172 24.085H173.332V30.6723H180.172V24.085Z" fill="#CEFD35"/>
<path d="M180.172 35.9421H173.332V42.5295H180.172V35.9421Z" fill="#CEFD35"/>
<path d="M180.172 214.931H173.332V221.518H180.172V214.931Z" fill="#CEFD35"/>
<path d="M180.172 226.788H173.332V233.375H180.172V226.788Z" fill="#CEFD35"/>
<path d="M378.519 214.931H371.68V221.518H378.519V214.931Z" fill="#CEFD35"/>
<path d="M378.519 226.788H371.68V233.375H378.519V226.788Z" fill="#CEFD35"/>
<path d="M378.519 24.085H371.68V30.6723H378.519V24.085Z" fill="#CEFD35"/>
<path d="M378.519 35.9421H371.68V42.5295H378.519V35.9421Z" fill="#CEFD35"/>
<path d="M180.172 119.508H173.332V126.095H180.172V119.508Z" fill="#CEFD35"/>
<path d="M180.172 131.365H173.332V137.953H180.172V131.365Z" fill="#CEFD35"/>
<path d="M180.172 310.354H173.332V316.941H180.172V310.354Z" fill="#CEFD35"/>
<path d="M180.172 322.399H173.332V328.987H180.172V322.399Z" fill="#CEFD35"/>
<path d="M378.519 310.354H371.68V316.941H378.519V310.354Z" fill="#CEFD35"/>
<path d="M378.519 322.399H371.68V328.987H378.519V322.399Z" fill="#CEFD35"/>
<path d="M378.519 119.508H371.68V126.095H378.519V119.508Z" fill="#CEFD35"/>
<path d="M378.519 131.365H371.68V137.953H378.519V131.365Z" fill="#CEFD35"/>
<path d="M180.172 47.9878H173.332V54.5752H180.172V47.9878Z" fill="#CEFD35"/>
<path d="M180.172 59.845H173.332V66.4324H180.172V59.845Z" fill="#CEFD35"/>
<path d="M180.172 238.834H173.332V245.421H180.172V238.834Z" fill="#CEFD35"/>
<path d="M180.172 250.691H173.332V257.278H180.172V250.691Z" fill="#CEFD35"/>
<path d="M378.519 238.834H371.68V245.421H378.519V238.834Z" fill="#CEFD35"/>
<path d="M378.519 250.691H371.68V257.278H378.519V250.691Z" fill="#CEFD35"/>
<path d="M378.519 47.9878H371.68V54.5752H378.519V47.9878Z" fill="#CEFD35"/>
<path d="M378.519 59.845H371.68V66.4324H378.519V59.845Z" fill="#CEFD35"/>
<path d="M180.172 143.411H173.332V149.998H180.172V143.411Z" fill="#CEFD35"/>
<path d="M180.172 155.268H173.332V161.855H180.172V155.268Z" fill="#CEFD35"/>
<path d="M180.172 334.257H173.332V340.844H180.172V334.257Z" fill="#CEFD35"/>
<path d="M180.172 346.114H173.332V352.701H180.172V346.114Z" fill="#CEFD35"/>
<path d="M378.519 334.257H371.68V340.844H378.519V334.257Z" fill="#CEFD35"/>
<path d="M378.519 346.114H371.68V352.701H378.519V346.114Z" fill="#CEFD35"/>
<path d="M378.519 143.411H371.68V149.998H378.519V143.411Z" fill="#CEFD35"/>
<path d="M378.519 155.268H371.68V161.855H378.519V155.268Z" fill="#CEFD35"/>
<path d="M180.172 71.7024H173.332V78.2898H180.172V71.7024Z" fill="#CEFD35"/>
<path d="M180.172 83.7478H173.332V90.3352H180.172V83.7478Z" fill="#CEFD35"/>
<path d="M180.172 262.737H173.332V269.324H180.172V262.737Z" fill="#CEFD35"/>
<path d="M180.172 274.594H173.332V281.181H180.172V274.594Z" fill="#CEFD35"/>
<path d="M378.519 262.737H371.68V269.324H378.519V262.737Z" fill="#CEFD35"/>
<path d="M378.519 274.594H371.68V281.181H378.519V274.594Z" fill="#CEFD35"/>
<path d="M378.519 71.7024H371.68V78.2898H378.519V71.7024Z" fill="#CEFD35"/>
<path d="M378.519 83.7478H371.68V90.3352H378.519V83.7478Z" fill="#CEFD35"/>
<path d="M180.172 167.125H173.332V173.713H180.172V167.125Z" fill="#CEFD35"/>
<path d="M180.172 179.171H173.332V185.758H180.172V179.171Z" fill="#CEFD35"/>
<path d="M180.172 358.159H173.332V364.747H180.172V358.159Z" fill="#CEFD35"/>
<path d="M180.172 370.017H173.332V376.604H180.172V370.017Z" fill="#CEFD35"/>
<path d="M378.519 358.159H371.68V364.747H378.519V358.159Z" fill="#CEFD35"/>
<path d="M378.519 370.017H371.68V376.604H378.519V370.017Z" fill="#CEFD35"/>
<path d="M378.519 167.125H371.68V173.713H378.519V167.125Z" fill="#CEFD35"/>
<path d="M378.519 179.171H371.68V185.758H378.519V179.171Z" fill="#CEFD35"/>
<path d="M192.679 0.182129H185.84V6.76951H192.679V0.182129Z" fill="#CEFD35"/>
<path d="M192.679 191.028H185.84V197.615H192.679V191.028Z" fill="#CEFD35"/>
<path d="M390.83 191.028H383.99V197.615H390.83V191.028Z" fill="#CEFD35"/>
<path d="M390.83 0.182129H383.99V6.76951H390.83V0.182129Z" fill="#CEFD35"/>
<path d="M192.679 95.6052H185.84V102.193H192.679V95.6052Z" fill="#CEFD35"/>
<path d="M192.679 286.451H185.84V293.039H192.679V286.451Z" fill="#CEFD35"/>
<path d="M390.83 286.451H383.99V293.039H390.83V286.451Z" fill="#CEFD35"/>
<path d="M390.83 95.6052H383.99V102.193H390.83V95.6052Z" fill="#CEFD35"/>
<path d="M192.679 24.085H185.84V30.6723H192.679V24.085Z" fill="#CEFD35"/>
<path d="M192.679 214.931H185.84V221.518H192.679V214.931Z" fill="#CEFD35"/>
<path d="M390.83 214.931H383.99V221.518H390.83V214.931Z" fill="#CEFD35"/>
<path d="M390.83 24.085H383.99V30.6723H390.83V24.085Z" fill="#CEFD35"/>
<path d="M192.679 119.508H185.84V126.095H192.679V119.508Z" fill="#CEFD35"/>
<path d="M192.679 310.354H185.84V316.941H192.679V310.354Z" fill="#CEFD35"/>
<path d="M390.83 310.354H383.99V316.941H390.83V310.354Z" fill="#CEFD35"/>
<path d="M390.83 119.508H383.99V126.095H390.83V119.508Z" fill="#CEFD35"/>
<path d="M192.679 47.9878H185.84V54.5752H192.679V47.9878Z" fill="#CEFD35"/>
<path d="M192.679 238.834H185.84V245.421H192.679V238.834Z" fill="#CEFD35"/>
<path d="M390.83 238.834H383.99V245.421H390.83V238.834Z" fill="#CEFD35"/>
<path d="M390.83 47.9878H383.99V54.5752H390.83V47.9878Z" fill="#CEFD35"/>
<path d="M192.679 143.411H185.84V149.998H192.679V143.411Z" fill="#CEFD35"/>
<path d="M192.679 334.257H185.84V340.844H192.679V334.257Z" fill="#CEFD35"/>
<path d="M390.83 334.257H383.99V340.844H390.83V334.257Z" fill="#CEFD35"/>
<path d="M390.83 143.411H383.99V149.998H390.83V143.411Z" fill="#CEFD35"/>
<path d="M192.679 71.7024H185.84V78.2898H192.679V71.7024Z" fill="#CEFD35"/>
<path d="M192.679 262.737H185.84V269.324H192.679V262.737Z" fill="#CEFD35"/>
<path d="M390.83 262.737H383.99V269.324H390.83V262.737Z" fill="#CEFD35"/>
<path d="M390.83 71.7024H383.99V78.2898H390.83V71.7024Z" fill="#CEFD35"/>
<path d="M192.679 167.125H185.84V173.713H192.679V167.125Z" fill="#CEFD35"/>
<path d="M192.679 358.159H185.84V364.747H192.679V358.159Z" fill="#CEFD35"/>
<path d="M390.83 358.159H383.99V364.747H390.83V358.159Z" fill="#CEFD35"/>
<path d="M390.83 167.125H383.99V173.713H390.83V167.125Z" fill="#CEFD35"/>
<path d="M192.679 12.0393H185.84V18.6267H192.679V12.0393Z" fill="#CEFD35"/>
<path d="M192.679 203.074H185.84V209.661H192.679V203.074Z" fill="#CEFD35"/>
<path d="M390.83 203.074H383.99V209.661H390.83V203.074Z" fill="#CEFD35"/>
<path d="M390.83 12.0393H383.99V18.6267H390.83V12.0393Z" fill="#CEFD35"/>
<path d="M192.679 107.651H185.84V114.238H192.679V107.651Z" fill="#CEFD35"/>
<path d="M192.679 298.497H185.84V305.084H192.679V298.497Z" fill="#CEFD35"/>
<path d="M390.83 298.497H383.99V305.084H390.83V298.497Z" fill="#CEFD35"/>
<path d="M390.83 107.651H383.99V114.238H390.83V107.651Z" fill="#CEFD35"/>
<path d="M192.679 35.9421H185.84V42.5295H192.679V35.9421Z" fill="#CEFD35"/>
<path d="M192.679 226.788H185.84V233.375H192.679V226.788Z" fill="#CEFD35"/>
<path d="M390.83 226.788H383.99V233.375H390.83V226.788Z" fill="#CEFD35"/>
<path d="M390.83 35.9421H383.99V42.5295H390.83V35.9421Z" fill="#CEFD35"/>
<path d="M192.679 131.365H185.84V137.953H192.679V131.365Z" fill="#CEFD35"/>
<path d="M192.679 322.399H185.84V328.987H192.679V322.399Z" fill="#CEFD35"/>
<path d="M390.83 322.399H383.99V328.987H390.83V322.399Z" fill="#CEFD35"/>
<path d="M390.83 131.365H383.99V137.953H390.83V131.365Z" fill="#CEFD35"/>
<path d="M192.679 59.845H185.84V66.4324H192.679V59.845Z" fill="#CEFD35"/>
<path d="M192.679 250.691H185.84V257.278H192.679V250.691Z" fill="#CEFD35"/>
<path d="M390.83 250.691H383.99V257.278H390.83V250.691Z" fill="#CEFD35"/>
<path d="M390.83 59.845H383.99V66.4324H390.83V59.845Z" fill="#CEFD35"/>
<path d="M192.679 155.268H185.84V161.855H192.679V155.268Z" fill="#CEFD35"/>
<path d="M192.679 346.114H185.84V352.701H192.679V346.114Z" fill="#CEFD35"/>
<path d="M390.83 346.114H383.99V352.701H390.83V346.114Z" fill="#CEFD35"/>
<path d="M390.83 155.268H383.99V161.855H390.83V155.268Z" fill="#CEFD35"/>
<path d="M192.679 83.7478H185.84V90.3352H192.679V83.7478Z" fill="#CEFD35"/>
<path d="M192.679 274.594H185.84V281.181H192.679V274.594Z" fill="#CEFD35"/>
<path d="M390.83 274.594H383.99V281.181H390.83V274.594Z" fill="#CEFD35"/>
<path d="M390.83 83.7478H383.99V90.3352H390.83V83.7478Z" fill="#CEFD35"/>
<path d="M192.679 179.171H185.84V185.758H192.679V179.171Z" fill="#CEFD35"/>
<path d="M192.679 370.017H185.84V376.604H192.679V370.017Z" fill="#CEFD35"/>
<path d="M390.83 370.017H383.99V376.604H390.83V370.017Z" fill="#CEFD35"/>
<path d="M390.83 179.171H383.99V185.758H390.83V179.171Z" fill="#CEFD35"/>
<path d="M56.4743 0.182129H49.6348V6.76951H56.4743V0.182129Z" fill="#CEFD35"/>
<path d="M56.4743 12.0393H49.6348V18.6267H56.4743V12.0393Z" fill="#CEFD35"/>
<path d="M56.4743 191.028H49.6348V197.615H56.4743V191.028Z" fill="#CEFD35"/>
<path d="M56.4743 203.074H49.6348V209.661H56.4743V203.074Z" fill="#CEFD35"/>
<path d="M254.625 191.028H247.785V197.615H254.625V191.028Z" fill="#CEFD35"/>
<path d="M254.625 203.074H247.785V209.661H254.625V203.074Z" fill="#CEFD35"/>
<path d="M254.625 0.182129H247.785V6.76951H254.625V0.182129Z" fill="#CEFD35"/>
<path d="M254.625 12.0393H247.785V18.6267H254.625V12.0393Z" fill="#CEFD35"/>
<path d="M56.4743 95.6052H49.6348V102.193H56.4743V95.6052Z" fill="#CEFD35"/>
<path d="M56.4743 107.651H49.6348V114.238H56.4743V107.651Z" fill="#CEFD35"/>
<path d="M56.4743 286.451H49.6348V293.039H56.4743V286.451Z" fill="#CEFD35"/>
<path d="M56.4743 298.497H49.6348V305.084H56.4743V298.497Z" fill="#CEFD35"/>
<path d="M254.625 286.451H247.785V293.039H254.625V286.451Z" fill="#CEFD35"/>
<path d="M254.625 298.497H247.785V305.084H254.625V298.497Z" fill="#CEFD35"/>
<path d="M254.625 95.6052H247.785V102.193H254.625V95.6052Z" fill="#CEFD35"/>
<path d="M254.625 107.651H247.785V114.238H254.625V107.651Z" fill="#CEFD35"/>
<path d="M56.4743 24.085H49.6348V30.6723H56.4743V24.085Z" fill="#CEFD35"/>
<path d="M56.4743 35.9421H49.6348V42.5295H56.4743V35.9421Z" fill="#CEFD35"/>
<path d="M56.4743 214.931H49.6348V221.518H56.4743V214.931Z" fill="#CEFD35"/>
<path d="M56.4743 226.788H49.6348V233.375H56.4743V226.788Z" fill="#CEFD35"/>
<path d="M254.625 214.931H247.785V221.518H254.625V214.931Z" fill="#CEFD35"/>
<path d="M254.625 226.788H247.785V233.375H254.625V226.788Z" fill="#CEFD35"/>
<path d="M254.625 24.085H247.785V30.6723H254.625V24.085Z" fill="#CEFD35"/>
<path d="M254.625 35.9421H247.785V42.5295H254.625V35.9421Z" fill="#CEFD35"/>
<path d="M56.4743 119.508H49.6348V126.095H56.4743V119.508Z" fill="#CEFD35"/>
<path d="M56.4743 131.365H49.6348V137.953H56.4743V131.365Z" fill="#CEFD35"/>
<path d="M56.4743 310.354H49.6348V316.941H56.4743V310.354Z" fill="#CEFD35"/>
<path d="M56.4743 322.399H49.6348V328.987H56.4743V322.399Z" fill="#CEFD35"/>
<path d="M254.625 310.354H247.785V316.941H254.625V310.354Z" fill="#CEFD35"/>
<path d="M254.625 322.399H247.785V328.987H254.625V322.399Z" fill="#CEFD35"/>
<path d="M254.625 119.508H247.785V126.095H254.625V119.508Z" fill="#CEFD35"/>
<path d="M254.625 131.365H247.785V137.953H254.625V131.365Z" fill="#CEFD35"/>
<path d="M56.4743 47.9878H49.6348V54.5752H56.4743V47.9878Z" fill="#CEFD35"/>
<path d="M56.4743 59.845H49.6348V66.4324H56.4743V59.845Z" fill="#CEFD35"/>
<path d="M56.4743 238.834H49.6348V245.421H56.4743V238.834Z" fill="#CEFD35"/>
<path d="M56.4743 250.691H49.6348V257.278H56.4743V250.691Z" fill="#CEFD35"/>
<path d="M254.625 238.834H247.785V245.421H254.625V238.834Z" fill="#CEFD35"/>
<path d="M254.625 250.691H247.785V257.278H254.625V250.691Z" fill="#CEFD35"/>
<path d="M254.625 47.9878H247.785V54.5752H254.625V47.9878Z" fill="#CEFD35"/>
<path d="M254.625 59.845H247.785V66.4324H254.625V59.845Z" fill="#CEFD35"/>
<path d="M56.4743 143.411H49.6348V149.998H56.4743V143.411Z" fill="#CEFD35"/>
<path d="M56.4743 155.268H49.6348V161.855H56.4743V155.268Z" fill="#CEFD35"/>
<path d="M56.4743 334.257H49.6348V340.844H56.4743V334.257Z" fill="#CEFD35"/>
<path d="M56.4743 346.114H49.6348V352.701H56.4743V346.114Z" fill="#CEFD35"/>
<path d="M254.625 334.257H247.785V340.844H254.625V334.257Z" fill="#CEFD35"/>
<path d="M254.625 346.114H247.785V352.701H254.625V346.114Z" fill="#CEFD35"/>
<path d="M254.625 143.411H247.785V149.998H254.625V143.411Z" fill="#CEFD35"/>
<path d="M254.625 155.268H247.785V161.855H254.625V155.268Z" fill="#CEFD35"/>
<path d="M56.4743 71.7024H49.6348V78.2898H56.4743V71.7024Z" fill="#CEFD35"/>
<path d="M56.4743 83.7478H49.6348V90.3352H56.4743V83.7478Z" fill="#CEFD35"/>
<path d="M56.4743 262.737H49.6348V269.324H56.4743V262.737Z" fill="#CEFD35"/>
<path d="M56.4743 274.594H49.6348V281.181H56.4743V274.594Z" fill="#CEFD35"/>
<path d="M254.625 262.737H247.785V269.324H254.625V262.737Z" fill="#CEFD35"/>
<path d="M254.625 274.594H247.785V281.181H254.625V274.594Z" fill="#CEFD35"/>
<path d="M254.625 71.7024H247.785V78.2898H254.625V71.7024Z" fill="#CEFD35"/>
<path d="M254.625 83.7478H247.785V90.3352H254.625V83.7478Z" fill="#CEFD35"/>
<path d="M56.4743 167.125H49.6348V173.713H56.4743V167.125Z" fill="#CEFD35"/>
<path d="M56.4743 179.171H49.6348V185.758H56.4743V179.171Z" fill="#CEFD35"/>
<path d="M56.4743 358.159H49.6348V364.747H56.4743V358.159Z" fill="#CEFD35"/>
<path d="M56.4743 370.017H49.6348V376.604H56.4743V370.017Z" fill="#CEFD35"/>
<path d="M254.625 358.159H247.785V364.747H254.625V358.159Z" fill="#CEFD35"/>
<path d="M254.625 370.017H247.785V376.604H254.625V370.017Z" fill="#CEFD35"/>
<path d="M254.625 167.125H247.785V173.713H254.625V167.125Z" fill="#CEFD35"/>
<path d="M254.625 179.171H247.785V185.758H254.625V179.171Z" fill="#CEFD35"/>
<path d="M68.7868 0.182129H61.9473V6.76951H68.7868V0.182129Z" fill="#CEFD35"/>
<path d="M68.7868 12.0393H61.9473V18.6267H68.7868V12.0393Z" fill="#CEFD35"/>
<path d="M68.7868 191.028H61.9473V197.615H68.7868V191.028Z" fill="#CEFD35"/>
<path d="M68.7868 203.074H61.9473V209.661H68.7868V203.074Z" fill="#CEFD35"/>
<path d="M266.937 191.028H260.098V197.615H266.937V191.028Z" fill="#CEFD35"/>
<path d="M266.937 203.074H260.098V209.661H266.937V203.074Z" fill="#CEFD35"/>
<path d="M266.937 0.182129H260.098V6.76951H266.937V0.182129Z" fill="#CEFD35"/>
<path d="M266.937 12.0393H260.098V18.6267H266.937V12.0393Z" fill="#CEFD35"/>
<path d="M68.7868 95.6052H61.9473V102.193H68.7868V95.6052Z" fill="#CEFD35"/>
<path d="M68.7868 107.651H61.9473V114.238H68.7868V107.651Z" fill="#CEFD35"/>
<path d="M68.7868 286.451H61.9473V293.039H68.7868V286.451Z" fill="#CEFD35"/>
<path d="M68.7868 298.497H61.9473V305.084H68.7868V298.497Z" fill="#CEFD35"/>
<path d="M266.937 286.451H260.098V293.039H266.937V286.451Z" fill="#CEFD35"/>
<path d="M266.937 298.497H260.098V305.084H266.937V298.497Z" fill="#CEFD35"/>
<path d="M266.937 95.6052H260.098V102.193H266.937V95.6052Z" fill="#CEFD35"/>
<path d="M266.937 107.651H260.098V114.238H266.937V107.651Z" fill="#CEFD35"/>
<path d="M68.7868 24.085H61.9473V30.6723H68.7868V24.085Z" fill="#CEFD35"/>
<path d="M68.7868 35.9421H61.9473V42.5295H68.7868V35.9421Z" fill="#CEFD35"/>
<path d="M68.7868 214.931H61.9473V221.518H68.7868V214.931Z" fill="#CEFD35"/>
<path d="M68.7868 226.788H61.9473V233.375H68.7868V226.788Z" fill="#CEFD35"/>
<path d="M266.937 214.931H260.098V221.518H266.937V214.931Z" fill="#CEFD35"/>
<path d="M266.937 226.788H260.098V233.375H266.937V226.788Z" fill="#CEFD35"/>
<path d="M266.937 24.085H260.098V30.6723H266.937V24.085Z" fill="#CEFD35"/>
<path d="M266.937 35.9421H260.098V42.5295H266.937V35.9421Z" fill="#CEFD35"/>
<path d="M68.7868 119.508H61.9473V126.095H68.7868V119.508Z" fill="#CEFD35"/>
<path d="M68.7868 131.365H61.9473V137.953H68.7868V131.365Z" fill="#CEFD35"/>
<path d="M68.7868 310.354H61.9473V316.941H68.7868V310.354Z" fill="#CEFD35"/>
<path d="M68.7868 322.399H61.9473V328.987H68.7868V322.399Z" fill="#CEFD35"/>
<path d="M266.937 310.354H260.098V316.941H266.937V310.354Z" fill="#CEFD35"/>
<path d="M266.937 322.399H260.098V328.987H266.937V322.399Z" fill="#CEFD35"/>
<path d="M266.937 119.508H260.098V126.095H266.937V119.508Z" fill="#CEFD35"/>
<path d="M266.937 131.365H260.098V137.953H266.937V131.365Z" fill="#CEFD35"/>
<path d="M68.7868 47.9878H61.9473V54.5752H68.7868V47.9878Z" fill="#CEFD35"/>
<path d="M68.7868 59.845H61.9473V66.4324H68.7868V59.845Z" fill="#CEFD35"/>
<path d="M68.7868 238.834H61.9473V245.421H68.7868V238.834Z" fill="#CEFD35"/>
<path d="M68.7868 250.691H61.9473V257.278H68.7868V250.691Z" fill="#CEFD35"/>
<path d="M266.937 238.834H260.098V245.421H266.937V238.834Z" fill="#CEFD35"/>
<path d="M266.937 250.691H260.098V257.278H266.937V250.691Z" fill="#CEFD35"/>
<path d="M266.937 47.9878H260.098V54.5752H266.937V47.9878Z" fill="#CEFD35"/>
<path d="M266.937 59.845H260.098V66.4324H266.937V59.845Z" fill="#CEFD35"/>
<path d="M68.7868 143.411H61.9473V149.998H68.7868V143.411Z" fill="#CEFD35"/>
<path d="M68.7868 155.268H61.9473V161.855H68.7868V155.268Z" fill="#CEFD35"/>
<path d="M68.7868 334.257H61.9473V340.844H68.7868V334.257Z" fill="#CEFD35"/>
<path d="M68.7868 346.114H61.9473V352.701H68.7868V346.114Z" fill="#CEFD35"/>
<path d="M266.937 334.257H260.098V340.844H266.937V334.257Z" fill="#CEFD35"/>
<path d="M266.937 346.114H260.098V352.701H266.937V346.114Z" fill="#CEFD35"/>
<path d="M266.937 143.411H260.098V149.998H266.937V143.411Z" fill="#CEFD35"/>
<path d="M266.937 155.268H260.098V161.855H266.937V155.268Z" fill="#CEFD35"/>
<path d="M68.7868 71.7024H61.9473V78.2898H68.7868V71.7024Z" fill="#CEFD35"/>
<path d="M68.7868 83.7478H61.9473V90.3352H68.7868V83.7478Z" fill="#CEFD35"/>
<path d="M68.7868 262.737H61.9473V269.324H68.7868V262.737Z" fill="#CEFD35"/>
<path d="M68.7868 274.594H61.9473V281.181H68.7868V274.594Z" fill="#CEFD35"/>
<path d="M266.937 262.737H260.098V269.324H266.937V262.737Z" fill="#CEFD35"/>
<path d="M266.937 274.594H260.098V281.181H266.937V274.594Z" fill="#CEFD35"/>
<path d="M266.937 71.7024H260.098V78.2898H266.937V71.7024Z" fill="#CEFD35"/>
<path d="M266.937 83.7478H260.098V90.3352H266.937V83.7478Z" fill="#CEFD35"/>
<path d="M68.7868 167.125H61.9473V173.713H68.7868V167.125Z" fill="#CEFD35"/>
<path d="M68.7868 179.171H61.9473V185.758H68.7868V179.171Z" fill="#CEFD35"/>
<path d="M68.7868 358.159H61.9473V364.747H68.7868V358.159Z" fill="#CEFD35"/>
<path d="M68.7868 370.017H61.9473V376.604H68.7868V370.017Z" fill="#CEFD35"/>
<path d="M266.937 358.159H260.098V364.747H266.937V358.159Z" fill="#CEFD35"/>
<path d="M266.937 370.017H260.098V376.604H266.937V370.017Z" fill="#CEFD35"/>
<path d="M266.937 167.125H260.098V173.713H266.937V167.125Z" fill="#CEFD35"/>
<path d="M266.937 179.171H260.098V185.758H266.937V179.171Z" fill="#CEFD35"/>
<path d="M81.0973 0.182129H74.2578V6.76951H81.0973V0.182129Z" fill="#CEFD35"/>
<path d="M81.0973 12.0393H74.2578V18.6267H81.0973V12.0393Z" fill="#CEFD35"/>
<path d="M81.0973 191.028H74.2578V197.615H81.0973V191.028Z" fill="#CEFD35"/>
<path d="M81.0973 203.074H74.2578V209.661H81.0973V203.074Z" fill="#CEFD35"/>
<path d="M279.443 191.028H272.604V197.615H279.443V191.028Z" fill="#CEFD35"/>
<path d="M279.443 203.074H272.604V209.661H279.443V203.074Z" fill="#CEFD35"/>
<path d="M279.443 0.182129H272.604V6.76951H279.443V0.182129Z" fill="#CEFD35"/>
<path d="M279.443 12.0393H272.604V18.6267H279.443V12.0393Z" fill="#CEFD35"/>
<path d="M81.0973 95.6052H74.2578V102.193H81.0973V95.6052Z" fill="#CEFD35"/>
<path d="M81.0973 107.651H74.2578V114.238H81.0973V107.651Z" fill="#CEFD35"/>
<path d="M81.0973 286.451H74.2578V293.039H81.0973V286.451Z" fill="#CEFD35"/>
<path d="M81.0973 298.497H74.2578V305.084H81.0973V298.497Z" fill="#CEFD35"/>
<path d="M279.443 286.451H272.604V293.039H279.443V286.451Z" fill="#CEFD35"/>
<path d="M279.443 298.497H272.604V305.084H279.443V298.497Z" fill="#CEFD35"/>
<path d="M279.443 95.6052H272.604V102.193H279.443V95.6052Z" fill="#CEFD35"/>
<path d="M279.443 107.651H272.604V114.238H279.443V107.651Z" fill="#CEFD35"/>
<path d="M81.0973 24.085H74.2578V30.6723H81.0973V24.085Z" fill="#CEFD35"/>
<path d="M81.0973 35.9421H74.2578V42.5295H81.0973V35.9421Z" fill="#CEFD35"/>
<path d="M81.0973 214.931H74.2578V221.518H81.0973V214.931Z" fill="#CEFD35"/>
<path d="M81.0973 226.788H74.2578V233.375H81.0973V226.788Z" fill="#CEFD35"/>
<path d="M279.443 214.931H272.604V221.518H279.443V214.931Z" fill="#CEFD35"/>
<path d="M279.443 226.788H272.604V233.375H279.443V226.788Z" fill="#CEFD35"/>
<path d="M279.443 24.085H272.604V30.6723H279.443V24.085Z" fill="#CEFD35"/>
<path d="M279.443 35.9421H272.604V42.5295H279.443V35.9421Z" fill="#CEFD35"/>
<path d="M81.0973 119.508H74.2578V126.095H81.0973V119.508Z" fill="#CEFD35"/>
<path d="M81.0973 131.365H74.2578V137.953H81.0973V131.365Z" fill="#CEFD35"/>
<path d="M81.0973 310.354H74.2578V316.941H81.0973V310.354Z" fill="#CEFD35"/>
<path d="M81.0973 322.399H74.2578V328.987H81.0973V322.399Z" fill="#CEFD35"/>
<path d="M279.443 310.354H272.604V316.941H279.443V310.354Z" fill="#CEFD35"/>
<path d="M279.443 322.399H272.604V328.987H279.443V322.399Z" fill="#CEFD35"/>
<path d="M279.443 119.508H272.604V126.095H279.443V119.508Z" fill="#CEFD35"/>
<path d="M279.443 131.365H272.604V137.953H279.443V131.365Z" fill="#CEFD35"/>
<path d="M81.0973 47.9878H74.2578V54.5752H81.0973V47.9878Z" fill="#CEFD35"/>
<path d="M81.0973 59.845H74.2578V66.4324H81.0973V59.845Z" fill="#CEFD35"/>
<path d="M81.0973 238.834H74.2578V245.421H81.0973V238.834Z" fill="#CEFD35"/>
<path d="M81.0973 250.691H74.2578V257.278H81.0973V250.691Z" fill="#CEFD35"/>
<path d="M279.443 238.834H272.604V245.421H279.443V238.834Z" fill="#CEFD35"/>
<path d="M279.443 250.691H272.604V257.278H279.443V250.691Z" fill="#CEFD35"/>
<path d="M279.443 47.9878H272.604V54.5752H279.443V47.9878Z" fill="#CEFD35"/>
<path d="M279.443 59.845H272.604V66.4324H279.443V59.845Z" fill="#CEFD35"/>
<path d="M81.0973 143.411H74.2578V149.998H81.0973V143.411Z" fill="#CEFD35"/>
<path d="M81.0973 155.268H74.2578V161.855H81.0973V155.268Z" fill="#CEFD35"/>
<path d="M81.0973 334.257H74.2578V340.844H81.0973V334.257Z" fill="#CEFD35"/>
<path d="M81.0973 346.114H74.2578V352.701H81.0973V346.114Z" fill="#CEFD35"/>
<path d="M279.443 334.257H272.604V340.844H279.443V334.257Z" fill="#CEFD35"/>
<path d="M279.443 346.114H272.604V352.701H279.443V346.114Z" fill="#CEFD35"/>
<path d="M279.443 143.411H272.604V149.998H279.443V143.411Z" fill="#CEFD35"/>
<path d="M279.443 155.268H272.604V161.855H279.443V155.268Z" fill="#CEFD35"/>
<path d="M81.0973 71.7024H74.2578V78.2898H81.0973V71.7024Z" fill="#CEFD35"/>
<path d="M81.0973 83.7478H74.2578V90.3352H81.0973V83.7478Z" fill="#CEFD35"/>
<path d="M81.0973 262.737H74.2578V269.324H81.0973V262.737Z" fill="#CEFD35"/>
<path d="M81.0973 274.594H74.2578V281.181H81.0973V274.594Z" fill="#CEFD35"/>
<path d="M279.443 262.737H272.604V269.324H279.443V262.737Z" fill="#CEFD35"/>
<path d="M279.443 274.594H272.604V281.181H279.443V274.594Z" fill="#CEFD35"/>
<path d="M279.443 71.7024H272.604V78.2898H279.443V71.7024Z" fill="#CEFD35"/>
<path d="M279.443 83.7478H272.604V90.3352H279.443V83.7478Z" fill="#CEFD35"/>
<path d="M81.0973 167.125H74.2578V173.713H81.0973V167.125Z" fill="#CEFD35"/>
<path d="M81.0973 179.171H74.2578V185.758H81.0973V179.171Z" fill="#CEFD35"/>
<path d="M81.0973 358.159H74.2578V364.747H81.0973V358.159Z" fill="#CEFD35"/>
<path d="M81.0973 370.017H74.2578V376.604H81.0973V370.017Z" fill="#CEFD35"/>
<path d="M279.443 358.159H272.604V364.747H279.443V358.159Z" fill="#CEFD35"/>
<path d="M279.443 370.017H272.604V376.604H279.443V370.017Z" fill="#CEFD35"/>
<path d="M279.443 167.125H272.604V173.713H279.443V167.125Z" fill="#CEFD35"/>
<path d="M279.443 179.171H272.604V185.758H279.443V179.171Z" fill="#CEFD35"/>
<path d="M93.6032 0.182129H86.7637V6.76951H93.6032V0.182129Z" fill="#CEFD35"/>
<path d="M93.6032 191.028H86.7637V197.615H93.6032V191.028Z" fill="#CEFD35"/>
<path d="M291.754 191.028H284.914V197.615H291.754V191.028Z" fill="#CEFD35"/>
<path d="M291.754 0.182129H284.914V6.76951H291.754V0.182129Z" fill="#CEFD35"/>
<path d="M93.6032 95.6052H86.7637V102.193H93.6032V95.6052Z" fill="#CEFD35"/>
<path d="M93.6032 286.451H86.7637V293.039H93.6032V286.451Z" fill="#CEFD35"/>
<path d="M291.754 286.451H284.914V293.039H291.754V286.451Z" fill="#CEFD35"/>
<path d="M291.754 95.6052H284.914V102.193H291.754V95.6052Z" fill="#CEFD35"/>
<path d="M93.6032 24.085H86.7637V30.6723H93.6032V24.085Z" fill="#CEFD35"/>
<path d="M93.6032 214.931H86.7637V221.518H93.6032V214.931Z" fill="#CEFD35"/>
<path d="M291.754 214.931H284.914V221.518H291.754V214.931Z" fill="#CEFD35"/>
<path d="M291.754 24.085H284.914V30.6723H291.754V24.085Z" fill="#CEFD35"/>
<path d="M93.6032 119.508H86.7637V126.095H93.6032V119.508Z" fill="#CEFD35"/>
<path d="M93.6032 310.354H86.7637V316.941H93.6032V310.354Z" fill="#CEFD35"/>
<path d="M291.754 310.354H284.914V316.941H291.754V310.354Z" fill="#CEFD35"/>
<path d="M291.754 119.508H284.914V126.095H291.754V119.508Z" fill="#CEFD35"/>
<path d="M93.6032 47.9878H86.7637V54.5752H93.6032V47.9878Z" fill="#CEFD35"/>
<path d="M93.6032 238.834H86.7637V245.421H93.6032V238.834Z" fill="#CEFD35"/>
<path d="M291.754 238.834H284.914V245.421H291.754V238.834Z" fill="#CEFD35"/>
<path d="M291.754 47.9878H284.914V54.5752H291.754V47.9878Z" fill="#CEFD35"/>
<path d="M93.6032 143.411H86.7637V149.998H93.6032V143.411Z" fill="#CEFD35"/>
<path d="M93.6032 334.257H86.7637V340.844H93.6032V334.257Z" fill="#CEFD35"/>
<path d="M291.754 334.257H284.914V340.844H291.754V334.257Z" fill="#CEFD35"/>
<path d="M291.754 143.411H284.914V149.998H291.754V143.411Z" fill="#CEFD35"/>
<path d="M93.6032 71.7024H86.7637V78.2898H93.6032V71.7024Z" fill="#CEFD35"/>
<path d="M93.6032 262.737H86.7637V269.324H93.6032V262.737Z" fill="#CEFD35"/>
<path d="M291.754 262.737H284.914V269.324H291.754V262.737Z" fill="#CEFD35"/>
<path d="M291.754 71.7024H284.914V78.2898H291.754V71.7024Z" fill="#CEFD35"/>
<path d="M93.6032 167.125H86.7637V173.713H93.6032V167.125Z" fill="#CEFD35"/>
<path d="M93.6032 358.159H86.7637V364.747H93.6032V358.159Z" fill="#CEFD35"/>
<path d="M291.754 358.159H284.914V364.747H291.754V358.159Z" fill="#CEFD35"/>
<path d="M291.754 167.125H284.914V173.713H291.754V167.125Z" fill="#CEFD35"/>
<path d="M93.6032 12.0393H86.7637V18.6267H93.6032V12.0393Z" fill="#CEFD35"/>
<path d="M93.6032 203.074H86.7637V209.661H93.6032V203.074Z" fill="#CEFD35"/>
<path d="M291.754 203.074H284.914V209.661H291.754V203.074Z" fill="#CEFD35"/>
<path d="M291.754 12.0393H284.914V18.6267H291.754V12.0393Z" fill="#CEFD35"/>
<path d="M93.6032 107.651H86.7637V114.238H93.6032V107.651Z" fill="#CEFD35"/>
<path d="M93.6032 298.497H86.7637V305.084H93.6032V298.497Z" fill="#CEFD35"/>
<path d="M291.754 298.497H284.914V305.084H291.754V298.497Z" fill="#CEFD35"/>
<path d="M291.754 107.651H284.914V114.238H291.754V107.651Z" fill="#CEFD35"/>
<path d="M93.6032 35.9421H86.7637V42.5295H93.6032V35.9421Z" fill="#CEFD35"/>
<path d="M93.6032 226.788H86.7637V233.375H93.6032V226.788Z" fill="#CEFD35"/>
<path d="M291.754 226.788H284.914V233.375H291.754V226.788Z" fill="#CEFD35"/>
<path d="M291.754 35.9421H284.914V42.5295H291.754V35.9421Z" fill="#CEFD35"/>
<path d="M93.6032 131.365H86.7637V137.953H93.6032V131.365Z" fill="#CEFD35"/>
<path d="M93.6032 322.399H86.7637V328.987H93.6032V322.399Z" fill="#CEFD35"/>
<path d="M291.754 322.399H284.914V328.987H291.754V322.399Z" fill="#CEFD35"/>
<path d="M291.754 131.365H284.914V137.953H291.754V131.365Z" fill="#CEFD35"/>
<path d="M93.6032 59.845H86.7637V66.4324H93.6032V59.845Z" fill="#CEFD35"/>
<path d="M93.6032 250.691H86.7637V257.278H93.6032V250.691Z" fill="#CEFD35"/>
<path d="M291.754 250.691H284.914V257.278H291.754V250.691Z" fill="#CEFD35"/>
<path d="M291.754 59.845H284.914V66.4324H291.754V59.845Z" fill="#CEFD35"/>
<path d="M93.6032 155.268H86.7637V161.855H93.6032V155.268Z" fill="#CEFD35"/>
<path d="M93.6032 346.114H86.7637V352.701H93.6032V346.114Z" fill="#CEFD35"/>
<path d="M291.754 346.114H284.914V352.701H291.754V346.114Z" fill="#CEFD35"/>
<path d="M291.754 155.268H284.914V161.855H291.754V155.268Z" fill="#CEFD35"/>
<path d="M93.6032 83.7478H86.7637V90.3352H93.6032V83.7478Z" fill="#CEFD35"/>
<path d="M93.6032 274.594H86.7637V281.181H93.6032V274.594Z" fill="#CEFD35"/>
<path d="M291.754 274.594H284.914V281.181H291.754V274.594Z" fill="#CEFD35"/>
<path d="M291.754 83.7478H284.914V90.3352H291.754V83.7478Z" fill="#CEFD35"/>
<path d="M93.6032 179.171H86.7637V185.758H93.6032V179.171Z" fill="#CEFD35"/>
<path d="M93.6032 370.017H86.7637V376.604H93.6032V370.017Z" fill="#CEFD35"/>
<path d="M291.754 370.017H284.914V376.604H291.754V370.017Z" fill="#CEFD35"/>
<path d="M291.754 179.171H284.914V185.758H291.754V179.171Z" fill="#CEFD35"/>
<path d="M105.916 0.182129H99.0762V6.76951H105.916V0.182129Z" fill="#CEFD35"/>
<path d="M105.914 12.0393H99.0742V18.6267H105.914V12.0393Z" fill="#CEFD35"/>
<path d="M105.914 191.028H99.0742V197.615H105.914V191.028Z" fill="#CEFD35"/>
<path d="M105.914 203.074H99.0742V209.661H105.914V203.074Z" fill="#CEFD35"/>
<path d="M304.066 191.028H297.227V197.615H304.066V191.028Z" fill="#CEFD35"/>
<path d="M304.066 203.074H297.227V209.661H304.066V203.074Z" fill="#CEFD35"/>
<path d="M304.066 0.182129H297.227V6.76951H304.066V0.182129Z" fill="#CEFD35"/>
<path d="M304.066 12.0393H297.227V18.6267H304.066V12.0393Z" fill="#CEFD35"/>
<path d="M6.83952 0.182129H0V6.76951H6.83952V0.182129Z" fill="#CEFD35"/>
<path d="M6.83952 12.0393H0V18.6267H6.83952V12.0393Z" fill="#CEFD35"/>
<path d="M6.83952 191.028H0V197.615H6.83952V191.028Z" fill="#CEFD35"/>
<path d="M6.83952 203.074H0V209.661H6.83952V203.074Z" fill="#CEFD35"/>
<path d="M204.99 191.028H198.15V197.615H204.99V191.028Z" fill="#CEFD35"/>
<path d="M204.99 203.074H198.15V209.661H204.99V203.074Z" fill="#CEFD35"/>
<path d="M204.99 0.182129H198.15V6.76951H204.99V0.182129Z" fill="#CEFD35"/>
<path d="M204.99 12.0393H198.15V18.6267H204.99V12.0393Z" fill="#CEFD35"/>
<path d="M105.914 95.6052H99.0742V102.193H105.914V95.6052Z" fill="#CEFD35"/>
<path d="M105.914 107.651H99.0742V114.238H105.914V107.651Z" fill="#CEFD35"/>
<path d="M105.914 286.451H99.0742V293.039H105.914V286.451Z" fill="#CEFD35"/>
<path d="M105.914 298.497H99.0742V305.084H105.914V298.497Z" fill="#CEFD35"/>
<path d="M304.066 286.451H297.227V293.039H304.066V286.451Z" fill="#CEFD35"/>
<path d="M304.066 298.497H297.227V305.084H304.066V298.497Z" fill="#CEFD35"/>
<path d="M304.066 95.6052H297.227V102.193H304.066V95.6052Z" fill="#CEFD35"/>
<path d="M304.066 107.651H297.227V114.238H304.066V107.651Z" fill="#CEFD35"/>
<path d="M6.83952 95.6052H0V102.193H6.83952V95.6052Z" fill="#CEFD35"/>
<path d="M6.83952 107.651H0V114.238H6.83952V107.651Z" fill="#CEFD35"/>
<path d="M6.83952 286.451H0V293.039H6.83952V286.451Z" fill="#CEFD35"/>
<path d="M6.83952 298.497H0V305.084H6.83952V298.497Z" fill="#CEFD35"/>
<path d="M204.99 286.451H198.15V293.039H204.99V286.451Z" fill="#CEFD35"/>
<path d="M204.99 298.497H198.15V305.084H204.99V298.497Z" fill="#CEFD35"/>
<path d="M204.99 95.6052H198.15V102.193H204.99V95.6052Z" fill="#CEFD35"/>
<path d="M204.99 107.651H198.15V114.238H204.99V107.651Z" fill="#CEFD35"/>
<path d="M105.914 24.085H99.0742V30.6723H105.914V24.085Z" fill="#CEFD35"/>
<path d="M105.914 35.9421H99.0742V42.5295H105.914V35.9421Z" fill="#CEFD35"/>
<path d="M105.914 214.931H99.0742V221.518H105.914V214.931Z" fill="#CEFD35"/>
<path d="M105.914 226.788H99.0742V233.375H105.914V226.788Z" fill="#CEFD35"/>
<path d="M304.066 214.931H297.227V221.518H304.066V214.931Z" fill="#CEFD35"/>
<path d="M304.066 226.788H297.227V233.375H304.066V226.788Z" fill="#CEFD35"/>
<path d="M304.066 24.085H297.227V30.6723H304.066V24.085Z" fill="#CEFD35"/>
<path d="M304.066 35.9421H297.227V42.5295H304.066V35.9421Z" fill="#CEFD35"/>
<path d="M6.83952 24.085H0V30.6723H6.83952V24.085Z" fill="#CEFD35"/>
<path d="M6.83952 35.9421H0V42.5295H6.83952V35.9421Z" fill="#CEFD35"/>
<path d="M6.83952 214.931H0V221.518H6.83952V214.931Z" fill="#CEFD35"/>
<path d="M6.83952 226.788H0V233.375H6.83952V226.788Z" fill="#CEFD35"/>
<path d="M204.99 214.931H198.15V221.518H204.99V214.931Z" fill="#CEFD35"/>
<path d="M204.99 226.788H198.15V233.375H204.99V226.788Z" fill="#CEFD35"/>
<path d="M204.99 24.085H198.15V30.6723H204.99V24.085Z" fill="#CEFD35"/>
<path d="M204.99 35.9421H198.15V42.5295H204.99V35.9421Z" fill="#CEFD35"/>
<path d="M105.914 119.508H99.0742V126.095H105.914V119.508Z" fill="#CEFD35"/>
<path d="M105.914 131.365H99.0742V137.953H105.914V131.365Z" fill="#CEFD35"/>
<path d="M105.914 310.354H99.0742V316.941H105.914V310.354Z" fill="#CEFD35"/>
<path d="M105.914 322.399H99.0742V328.987H105.914V322.399Z" fill="#CEFD35"/>
<path d="M304.066 310.354H297.227V316.941H304.066V310.354Z" fill="#CEFD35"/>
<path d="M304.066 322.399H297.227V328.987H304.066V322.399Z" fill="#CEFD35"/>
<path d="M304.066 119.508H297.227V126.095H304.066V119.508Z" fill="#CEFD35"/>
<path d="M304.066 131.365H297.227V137.953H304.066V131.365Z" fill="#CEFD35"/>
<path d="M6.83952 119.508H0V126.095H6.83952V119.508Z" fill="#CEFD35"/>
<path d="M6.83952 131.365H0V137.953H6.83952V131.365Z" fill="#CEFD35"/>
<path d="M6.83952 310.354H0V316.941H6.83952V310.354Z" fill="#CEFD35"/>
<path d="M6.83952 322.399H0V328.987H6.83952V322.399Z" fill="#CEFD35"/>
<path d="M204.99 310.354H198.15V316.941H204.99V310.354Z" fill="#CEFD35"/>
<path d="M204.99 322.399H198.15V328.987H204.99V322.399Z" fill="#CEFD35"/>
<path d="M204.99 119.508H198.15V126.095H204.99V119.508Z" fill="#CEFD35"/>
<path d="M204.99 131.365H198.15V137.953H204.99V131.365Z" fill="#CEFD35"/>
<path d="M105.914 47.9878H99.0742V54.5752H105.914V47.9878Z" fill="#CEFD35"/>
<path d="M105.914 59.845H99.0742V66.4324H105.914V59.845Z" fill="#CEFD35"/>
<path d="M105.914 238.834H99.0742V245.421H105.914V238.834Z" fill="#CEFD35"/>
<path d="M105.914 250.691H99.0742V257.278H105.914V250.691Z" fill="#CEFD35"/>
<path d="M304.066 238.834H297.227V245.421H304.066V238.834Z" fill="#CEFD35"/>
<path d="M304.066 250.691H297.227V257.278H304.066V250.691Z" fill="#CEFD35"/>
<path d="M304.066 47.9878H297.227V54.5752H304.066V47.9878Z" fill="#CEFD35"/>
<path d="M304.066 59.845H297.227V66.4324H304.066V59.845Z" fill="#CEFD35"/>
<path d="M6.83952 47.9878H0V54.5752H6.83952V47.9878Z" fill="#CEFD35"/>
<path d="M6.83952 59.845H0V66.4324H6.83952V59.845Z" fill="#CEFD35"/>
<path d="M6.83952 238.834H0V245.421H6.83952V238.834Z" fill="#CEFD35"/>
<path d="M6.83952 250.691H0V257.278H6.83952V250.691Z" fill="#CEFD35"/>
<path d="M204.99 238.834H198.15V245.421H204.99V238.834Z" fill="#CEFD35"/>
<path d="M204.99 250.691H198.15V257.278H204.99V250.691Z" fill="#CEFD35"/>
<path d="M204.99 47.9878H198.15V54.5752H204.99V47.9878Z" fill="#CEFD35"/>
<path d="M204.99 59.845H198.15V66.4324H204.99V59.845Z" fill="#CEFD35"/>
<path d="M105.914 143.411H99.0742V149.998H105.914V143.411Z" fill="#CEFD35"/>
<path d="M105.914 155.268H99.0742V161.855H105.914V155.268Z" fill="#CEFD35"/>
<path d="M105.914 334.257H99.0742V340.844H105.914V334.257Z" fill="#CEFD35"/>
<path d="M105.914 346.114H99.0742V352.701H105.914V346.114Z" fill="#CEFD35"/>
<path d="M304.066 334.257H297.227V340.844H304.066V334.257Z" fill="#CEFD35"/>
<path d="M304.066 346.114H297.227V352.701H304.066V346.114Z" fill="#CEFD35"/>
<path d="M304.066 143.411H297.227V149.998H304.066V143.411Z" fill="#CEFD35"/>
<path d="M304.066 155.268H297.227V161.855H304.066V155.268Z" fill="#CEFD35"/>
<path d="M6.83952 143.411H0V149.998H6.83952V143.411Z" fill="#CEFD35"/>
<path d="M6.83952 155.268H0V161.855H6.83952V155.268Z" fill="#CEFD35"/>
<path d="M6.83952 334.257H0V340.844H6.83952V334.257Z" fill="#CEFD35"/>
<path d="M6.83952 346.114H0V352.701H6.83952V346.114Z" fill="#CEFD35"/>
<path d="M204.99 334.257H198.15V340.844H204.99V334.257Z" fill="#CEFD35"/>
<path d="M204.99 346.114H198.15V352.701H204.99V346.114Z" fill="#CEFD35"/>
<path d="M204.99 143.411H198.15V149.998H204.99V143.411Z" fill="#CEFD35"/>
<path d="M204.99 155.268H198.15V161.855H204.99V155.268Z" fill="#CEFD35"/>
<path d="M105.914 71.7024H99.0742V78.2898H105.914V71.7024Z" fill="#CEFD35"/>
<path d="M105.914 83.7478H99.0742V90.3352H105.914V83.7478Z" fill="#CEFD35"/>
<path d="M105.914 262.737H99.0742V269.324H105.914V262.737Z" fill="#CEFD35"/>
<path d="M105.914 274.594H99.0742V281.181H105.914V274.594Z" fill="#CEFD35"/>
<path d="M304.066 262.737H297.227V269.324H304.066V262.737Z" fill="#CEFD35"/>
<path d="M304.066 274.594H297.227V281.181H304.066V274.594Z" fill="#CEFD35"/>
<path d="M304.066 71.7024H297.227V78.2898H304.066V71.7024Z" fill="#CEFD35"/>
<path d="M304.066 83.7478H297.227V90.3352H304.066V83.7478Z" fill="#CEFD35"/>
<path d="M6.83952 71.7024H0V78.2898H6.83952V71.7024Z" fill="#CEFD35"/>
<path d="M6.83952 83.7478H0V90.3352H6.83952V83.7478Z" fill="#CEFD35"/>
<path d="M6.83952 262.737H0V269.324H6.83952V262.737Z" fill="#CEFD35"/>
<path d="M6.83952 274.594H0V281.181H6.83952V274.594Z" fill="#CEFD35"/>
<path d="M204.99 262.737H198.15V269.324H204.99V262.737Z" fill="#CEFD35"/>
<path d="M204.99 274.594H198.15V281.181H204.99V274.594Z" fill="#CEFD35"/>
<path d="M204.99 71.7024H198.15V78.2898H204.99V71.7024Z" fill="#CEFD35"/>
<path d="M204.99 83.7478H198.15V90.3352H204.99V83.7478Z" fill="#CEFD35"/>
<path d="M105.914 167.125H99.0742V173.713H105.914V167.125Z" fill="#CEFD35"/>
<path d="M105.914 179.171H99.0742V185.758H105.914V179.171Z" fill="#CEFD35"/>
<path d="M105.914 358.159H99.0742V364.747H105.914V358.159Z" fill="#CEFD35"/>
<path d="M105.914 370.017H99.0742V376.604H105.914V370.017Z" fill="#CEFD35"/>
<path d="M304.066 358.159H297.227V364.747H304.066V358.159Z" fill="#CEFD35"/>
<path d="M304.066 370.017H297.227V376.604H304.066V370.017Z" fill="#CEFD35"/>
<path d="M304.066 167.125H297.227V173.713H304.066V167.125Z" fill="#CEFD35"/>
<path d="M304.066 179.171H297.227V185.758H304.066V179.171Z" fill="#CEFD35"/>
<path d="M6.83952 167.125H0V173.713H6.83952V167.125Z" fill="#CEFD35"/>
<path d="M6.83952 179.171H0V185.758H6.83952V179.171Z" fill="#CEFD35"/>
<path d="M6.83952 358.159H0V364.747H6.83952V358.159Z" fill="#CEFD35"/>
<path d="M6.83952 370.017H0V376.604H6.83952V370.017Z" fill="#CEFD35"/>
<path d="M204.99 358.159H198.15V364.747H204.99V358.159Z" fill="#CEFD35"/>
<path d="M204.99 370.017H198.15V376.604H204.99V370.017Z" fill="#CEFD35"/>
<path d="M204.99 167.125H198.15V173.713H204.99V167.125Z" fill="#CEFD35"/>
<path d="M204.99 179.171H198.15V185.758H204.99V179.171Z" fill="#CEFD35"/>
<path d="M118.422 0.182129H111.582V6.76951H118.422V0.182129Z" fill="#CEFD35"/>
<path d="M118.422 12.0393H111.582V18.6267H118.422V12.0393Z" fill="#CEFD35"/>
<path d="M118.422 191.028H111.582V197.615H118.422V191.028Z" fill="#CEFD35"/>
<path d="M118.422 203.074H111.582V209.661H118.422V203.074Z" fill="#CEFD35"/>
<path d="M316.572 191.028H309.732V197.615H316.572V191.028Z" fill="#CEFD35"/>
<path d="M316.572 203.074H309.732V209.661H316.572V203.074Z" fill="#CEFD35"/>
<path d="M316.572 0.182129H309.732V6.76951H316.572V0.182129Z" fill="#CEFD35"/>
<path d="M316.572 12.0393H309.732V18.6267H316.572V12.0393Z" fill="#CEFD35"/>
<path d="M19.1501 0.182129H12.3105V6.76951H19.1501V0.182129Z" fill="#CEFD35"/>
<path d="M19.1501 12.0393H12.3105V18.6267H19.1501V12.0393Z" fill="#CEFD35"/>
<path d="M19.1501 191.028H12.3105V197.615H19.1501V191.028Z" fill="#CEFD35"/>
<path d="M19.1501 203.074H12.3105V209.661H19.1501V203.074Z" fill="#CEFD35"/>
<path d="M217.496 191.028H210.656V197.615H217.496V191.028Z" fill="#CEFD35"/>
<path d="M217.496 203.074H210.656V209.661H217.496V203.074Z" fill="#CEFD35"/>
<path d="M217.496 0.182129H210.656V6.76951H217.496V0.182129Z" fill="#CEFD35"/>
<path d="M217.496 12.0393H210.656V18.6267H217.496V12.0393Z" fill="#CEFD35"/>
<path d="M118.422 95.6052H111.582V102.193H118.422V95.6052Z" fill="#CEFD35"/>
<path d="M118.422 107.651H111.582V114.238H118.422V107.651Z" fill="#CEFD35"/>
<path d="M118.422 286.451H111.582V293.039H118.422V286.451Z" fill="#CEFD35"/>
<path d="M118.422 298.497H111.582V305.084H118.422V298.497Z" fill="#CEFD35"/>
<path d="M316.572 286.451H309.732V293.039H316.572V286.451Z" fill="#CEFD35"/>
<path d="M316.572 298.497H309.732V305.084H316.572V298.497Z" fill="#CEFD35"/>
<path d="M316.572 95.6052H309.732V102.193H316.572V95.6052Z" fill="#CEFD35"/>
<path d="M316.572 107.651H309.732V114.238H316.572V107.651Z" fill="#CEFD35"/>
<path d="M19.1501 95.6052H12.3105V102.193H19.1501V95.6052Z" fill="#CEFD35"/>
<path d="M19.1501 107.651H12.3105V114.238H19.1501V107.651Z" fill="#CEFD35"/>
<path d="M19.1501 286.451H12.3105V293.039H19.1501V286.451Z" fill="#CEFD35"/>
<path d="M19.1501 298.497H12.3105V305.084H19.1501V298.497Z" fill="#CEFD35"/>
<path d="M217.496 286.451H210.656V293.039H217.496V286.451Z" fill="#CEFD35"/>
<path d="M217.496 298.497H210.656V305.084H217.496V298.497Z" fill="#CEFD35"/>
<path d="M217.496 95.6052H210.656V102.193H217.496V95.6052Z" fill="#CEFD35"/>
<path d="M217.496 107.651H210.656V114.238H217.496V107.651Z" fill="#CEFD35"/>
<path d="M118.422 24.085H111.582V30.6723H118.422V24.085Z" fill="#CEFD35"/>
<path d="M118.422 35.9421H111.582V42.5295H118.422V35.9421Z" fill="#CEFD35"/>
<path d="M118.422 214.931H111.582V221.518H118.422V214.931Z" fill="#CEFD35"/>
<path d="M118.422 226.788H111.582V233.375H118.422V226.788Z" fill="#CEFD35"/>
<path d="M316.572 214.931H309.732V221.518H316.572V214.931Z" fill="#CEFD35"/>
<path d="M316.572 226.788H309.732V233.375H316.572V226.788Z" fill="#CEFD35"/>
<path d="M316.572 24.085H309.732V30.6723H316.572V24.085Z" fill="#CEFD35"/>
<path d="M316.572 35.9421H309.732V42.5295H316.572V35.9421Z" fill="#CEFD35"/>
<path d="M19.1501 24.085H12.3105V30.6723H19.1501V24.085Z" fill="#CEFD35"/>
<path d="M19.1501 35.9421H12.3105V42.5295H19.1501V35.9421Z" fill="#CEFD35"/>
<path d="M19.1501 214.931H12.3105V221.518H19.1501V214.931Z" fill="#CEFD35"/>
<path d="M19.1501 226.788H12.3105V233.375H19.1501V226.788Z" fill="#CEFD35"/>
<path d="M217.496 214.931H210.656V221.518H217.496V214.931Z" fill="#CEFD35"/>
<path d="M217.496 226.788H210.656V233.375H217.496V226.788Z" fill="#CEFD35"/>
<path d="M217.496 24.085H210.656V30.6723H217.496V24.085Z" fill="#CEFD35"/>
<path d="M217.496 35.9421H210.656V42.5295H217.496V35.9421Z" fill="#CEFD35"/>
<path d="M118.422 119.508H111.582V126.095H118.422V119.508Z" fill="#CEFD35"/>
<path d="M118.422 131.365H111.582V137.953H118.422V131.365Z" fill="#CEFD35"/>
<path d="M118.422 310.354H111.582V316.941H118.422V310.354Z" fill="#CEFD35"/>
<path d="M118.422 322.399H111.582V328.987H118.422V322.399Z" fill="#CEFD35"/>
<path d="M316.572 310.354H309.732V316.941H316.572V310.354Z" fill="#CEFD35"/>
<path d="M316.572 322.399H309.732V328.987H316.572V322.399Z" fill="#CEFD35"/>
<path d="M316.572 119.508H309.732V126.095H316.572V119.508Z" fill="#CEFD35"/>
<path d="M316.572 131.365H309.732V137.953H316.572V131.365Z" fill="#CEFD35"/>
<path d="M19.1501 119.508H12.3105V126.095H19.1501V119.508Z" fill="#CEFD35"/>
<path d="M19.1501 131.365H12.3105V137.953H19.1501V131.365Z" fill="#CEFD35"/>
<path d="M19.1501 310.354H12.3105V316.941H19.1501V310.354Z" fill="#CEFD35"/>
<path d="M19.1501 322.399H12.3105V328.987H19.1501V322.399Z" fill="#CEFD35"/>
<path d="M217.496 310.354H210.656V316.941H217.496V310.354Z" fill="#CEFD35"/>
<path d="M217.496 322.399H210.656V328.987H217.496V322.399Z" fill="#CEFD35"/>
<path d="M217.496 119.508H210.656V126.095H217.496V119.508Z" fill="#CEFD35"/>
<path d="M217.496 131.365H210.656V137.953H217.496V131.365Z" fill="#CEFD35"/>
<path d="M118.422 47.9878H111.582V54.5752H118.422V47.9878Z" fill="#CEFD35"/>
<path d="M118.422 59.845H111.582V66.4324H118.422V59.845Z" fill="#CEFD35"/>
<path d="M118.422 238.834H111.582V245.421H118.422V238.834Z" fill="#CEFD35"/>
<path d="M118.422 250.691H111.582V257.278H118.422V250.691Z" fill="#CEFD35"/>
<path d="M316.572 238.834H309.732V245.421H316.572V238.834Z" fill="#CEFD35"/>
<path d="M316.572 250.691H309.732V257.278H316.572V250.691Z" fill="#CEFD35"/>
<path d="M316.572 47.9878H309.732V54.5752H316.572V47.9878Z" fill="#CEFD35"/>
<path d="M316.572 59.845H309.732V66.4324H316.572V59.845Z" fill="#CEFD35"/>
<path d="M19.1501 47.9878H12.3105V54.5752H19.1501V47.9878Z" fill="#CEFD35"/>
<path d="M19.1501 59.845H12.3105V66.4324H19.1501V59.845Z" fill="#CEFD35"/>
<path d="M19.1501 238.834H12.3105V245.421H19.1501V238.834Z" fill="#CEFD35"/>
<path d="M19.1501 250.691H12.3105V257.278H19.1501V250.691Z" fill="#CEFD35"/>
<path d="M217.496 238.834H210.656V245.421H217.496V238.834Z" fill="#CEFD35"/>
<path d="M217.496 250.691H210.656V257.278H217.496V250.691Z" fill="#CEFD35"/>
<path d="M217.496 47.9878H210.656V54.5752H217.496V47.9878Z" fill="#CEFD35"/>
<path d="M217.496 59.845H210.656V66.4324H217.496V59.845Z" fill="#CEFD35"/>
<path d="M118.422 143.411H111.582V149.998H118.422V143.411Z" fill="#CEFD35"/>
<path d="M118.422 155.268H111.582V161.855H118.422V155.268Z" fill="#CEFD35"/>
<path d="M118.422 334.257H111.582V340.844H118.422V334.257Z" fill="#CEFD35"/>
<path d="M118.422 346.114H111.582V352.701H118.422V346.114Z" fill="#CEFD35"/>
<path d="M316.572 334.257H309.732V340.844H316.572V334.257Z" fill="#CEFD35"/>
<path d="M316.572 346.114H309.732V352.701H316.572V346.114Z" fill="#CEFD35"/>
<path d="M316.572 143.411H309.732V149.998H316.572V143.411Z" fill="#CEFD35"/>
<path d="M316.572 155.268H309.732V161.855H316.572V155.268Z" fill="#CEFD35"/>
<path d="M19.1501 143.411H12.3105V149.998H19.1501V143.411Z" fill="#CEFD35"/>
<path d="M19.1501 155.268H12.3105V161.855H19.1501V155.268Z" fill="#CEFD35"/>
<path d="M19.1501 334.257H12.3105V340.844H19.1501V334.257Z" fill="#CEFD35"/>
<path d="M19.1501 346.114H12.3105V352.701H19.1501V346.114Z" fill="#CEFD35"/>
<path d="M217.496 334.257H210.656V340.844H217.496V334.257Z" fill="#CEFD35"/>
<path d="M217.496 346.114H210.656V352.701H217.496V346.114Z" fill="#CEFD35"/>
<path d="M217.496 143.411H210.656V149.998H217.496V143.411Z" fill="#CEFD35"/>
<path d="M217.496 155.268H210.656V161.855H217.496V155.268Z" fill="#CEFD35"/>
<path d="M118.422 71.7024H111.582V78.2898H118.422V71.7024Z" fill="#CEFD35"/>
<path d="M118.422 83.7478H111.582V90.3352H118.422V83.7478Z" fill="#CEFD35"/>
<path d="M118.422 262.737H111.582V269.324H118.422V262.737Z" fill="#CEFD35"/>
<path d="M118.422 274.594H111.582V281.181H118.422V274.594Z" fill="#CEFD35"/>
<path d="M316.572 262.737H309.732V269.324H316.572V262.737Z" fill="#CEFD35"/>
<path d="M316.572 274.594H309.732V281.181H316.572V274.594Z" fill="#CEFD35"/>
<path d="M316.572 71.7024H309.732V78.2898H316.572V71.7024Z" fill="#CEFD35"/>
<path d="M316.572 83.7478H309.732V90.3352H316.572V83.7478Z" fill="#CEFD35"/>
<path d="M19.1501 71.7024H12.3105V78.2898H19.1501V71.7024Z" fill="#CEFD35"/>
<path d="M19.1501 83.7478H12.3105V90.3352H19.1501V83.7478Z" fill="#CEFD35"/>
<path d="M19.1501 262.737H12.3105V269.324H19.1501V262.737Z" fill="#CEFD35"/>
<path d="M19.1501 274.594H12.3105V281.181H19.1501V274.594Z" fill="#CEFD35"/>
<path d="M217.496 262.737H210.656V269.324H217.496V262.737Z" fill="#CEFD35"/>
<path d="M217.496 274.594H210.656V281.181H217.496V274.594Z" fill="#CEFD35"/>
<path d="M217.496 71.7024H210.656V78.2898H217.496V71.7024Z" fill="#CEFD35"/>
<path d="M217.496 83.7478H210.656V90.3352H217.496V83.7478Z" fill="#CEFD35"/>
<path d="M118.422 167.125H111.582V173.713H118.422V167.125Z" fill="#CEFD35"/>
<path d="M118.422 179.171H111.582V185.758H118.422V179.171Z" fill="#CEFD35"/>
<path d="M118.422 358.159H111.582V364.747H118.422V358.159Z" fill="#CEFD35"/>
<path d="M118.422 370.017H111.582V376.604H118.422V370.017Z" fill="#CEFD35"/>
<path d="M316.572 358.159H309.732V364.747H316.572V358.159Z" fill="#CEFD35"/>
<path d="M316.572 370.017H309.732V376.604H316.572V370.017Z" fill="#CEFD35"/>
<path d="M316.572 167.125H309.732V173.713H316.572V167.125Z" fill="#CEFD35"/>
<path d="M316.572 179.171H309.732V185.758H316.572V179.171Z" fill="#CEFD35"/>
<path d="M19.1501 167.125H12.3105V173.713H19.1501V167.125Z" fill="#CEFD35"/>
<path d="M19.1501 179.171H12.3105V185.758H19.1501V179.171Z" fill="#CEFD35"/>
<path d="M19.1501 358.159H12.3105V364.747H19.1501V358.159Z" fill="#CEFD35"/>
<path d="M19.1501 370.017H12.3105V376.604H19.1501V370.017Z" fill="#CEFD35"/>
<path d="M217.496 358.159H210.656V364.747H217.496V358.159Z" fill="#CEFD35"/>
<path d="M217.496 370.017H210.656V376.604H217.496V370.017Z" fill="#CEFD35"/>
<path d="M217.496 167.125H210.656V173.713H217.496V167.125Z" fill="#CEFD35"/>
<path d="M217.496 179.171H210.656V185.758H217.496V179.171Z" fill="#CEFD35"/>
<path d="M130.732 0.182129H123.893V6.76951H130.732V0.182129Z" fill="#CEFD35"/>
<path d="M130.732 12.0393H123.893V18.6267H130.732V12.0393Z" fill="#CEFD35"/>
<path d="M130.732 191.028H123.893V197.615H130.732V191.028Z" fill="#CEFD35"/>
<path d="M130.732 203.074H123.893V209.661H130.732V203.074Z" fill="#CEFD35"/>
<path d="M328.883 191.028H322.043V197.615H328.883V191.028Z" fill="#CEFD35"/>
<path d="M328.883 203.074H322.043V209.661H328.883V203.074Z" fill="#CEFD35"/>
<path d="M328.883 0.182129H322.043V6.76951H328.883V0.182129Z" fill="#CEFD35"/>
<path d="M328.883 12.0393H322.043V18.6267H328.883V12.0393Z" fill="#CEFD35"/>
<path d="M31.6579 0.182129H24.8184V6.76951H31.6579V0.182129Z" fill="#CEFD35"/>
<path d="M31.6559 12.0393H24.8164V18.6267H31.6559V12.0393Z" fill="#CEFD35"/>
<path d="M31.6559 191.028H24.8164V197.615H31.6559V191.028Z" fill="#CEFD35"/>
<path d="M31.6559 203.074H24.8164V209.661H31.6559V203.074Z" fill="#CEFD35"/>
<path d="M229.808 191.028H222.969V197.615H229.808V191.028Z" fill="#CEFD35"/>
<path d="M229.808 203.074H222.969V209.661H229.808V203.074Z" fill="#CEFD35"/>
<path d="M229.808 0.182129H222.969V6.76951H229.808V0.182129Z" fill="#CEFD35"/>
<path d="M229.808 12.0393H222.969V18.6267H229.808V12.0393Z" fill="#CEFD35"/>
<path d="M130.732 95.6052H123.893V102.193H130.732V95.6052Z" fill="#CEFD35"/>
<path d="M130.732 107.651H123.893V114.238H130.732V107.651Z" fill="#CEFD35"/>
<path d="M130.732 286.451H123.893V293.039H130.732V286.451Z" fill="#CEFD35"/>
<path d="M130.732 298.497H123.893V305.084H130.732V298.497Z" fill="#CEFD35"/>
<path d="M328.883 286.451H322.043V293.039H328.883V286.451Z" fill="#CEFD35"/>
<path d="M328.883 298.497H322.043V305.084H328.883V298.497Z" fill="#CEFD35"/>
<path d="M328.883 95.6052H322.043V102.193H328.883V95.6052Z" fill="#CEFD35"/>
<path d="M328.883 107.651H322.043V114.238H328.883V107.651Z" fill="#CEFD35"/>
<path d="M31.6559 95.6052H24.8164V102.193H31.6559V95.6052Z" fill="#CEFD35"/>
<path d="M31.6559 107.651H24.8164V114.238H31.6559V107.651Z" fill="#CEFD35"/>
<path d="M31.6559 286.451H24.8164V293.039H31.6559V286.451Z" fill="#CEFD35"/>
<path d="M31.6559 298.497H24.8164V305.084H31.6559V298.497Z" fill="#CEFD35"/>
<path d="M229.808 286.451H222.969V293.039H229.808V286.451Z" fill="#CEFD35"/>
<path d="M229.808 298.497H222.969V305.084H229.808V298.497Z" fill="#CEFD35"/>
<path d="M229.808 95.6052H222.969V102.193H229.808V95.6052Z" fill="#CEFD35"/>
<path d="M229.808 107.651H222.969V114.238H229.808V107.651Z" fill="#CEFD35"/>
<path d="M130.732 24.085H123.893V30.6723H130.732V24.085Z" fill="#CEFD35"/>
<path d="M130.732 35.9421H123.893V42.5295H130.732V35.9421Z" fill="#CEFD35"/>
<path d="M130.732 214.931H123.893V221.518H130.732V214.931Z" fill="#CEFD35"/>
<path d="M130.732 226.788H123.893V233.375H130.732V226.788Z" fill="#CEFD35"/>
<path d="M328.883 214.931H322.043V221.518H328.883V214.931Z" fill="#CEFD35"/>
<path d="M328.883 226.788H322.043V233.375H328.883V226.788Z" fill="#CEFD35"/>
<path d="M328.883 24.085H322.043V30.6723H328.883V24.085Z" fill="#CEFD35"/>
<path d="M328.883 35.9421H322.043V42.5295H328.883V35.9421Z" fill="#CEFD35"/>
<path d="M31.6559 24.085H24.8164V30.6723H31.6559V24.085Z" fill="#CEFD35"/>
<path d="M31.6559 35.9421H24.8164V42.5295H31.6559V35.9421Z" fill="#CEFD35"/>
<path d="M31.6559 214.931H24.8164V221.518H31.6559V214.931Z" fill="#CEFD35"/>
<path d="M31.6559 226.788H24.8164V233.375H31.6559V226.788Z" fill="#CEFD35"/>
<path d="M229.808 214.931H222.969V221.518H229.808V214.931Z" fill="#CEFD35"/>
<path d="M229.808 226.788H222.969V233.375H229.808V226.788Z" fill="#CEFD35"/>
<path d="M229.808 24.085H222.969V30.6723H229.808V24.085Z" fill="#CEFD35"/>
<path d="M229.808 35.9421H222.969V42.5295H229.808V35.9421Z" fill="#CEFD35"/>
<path d="M130.732 119.508H123.893V126.095H130.732V119.508Z" fill="#CEFD35"/>
<path d="M130.732 131.365H123.893V137.953H130.732V131.365Z" fill="#CEFD35"/>
<path d="M130.732 310.354H123.893V316.941H130.732V310.354Z" fill="#CEFD35"/>
<path d="M130.732 322.399H123.893V328.987H130.732V322.399Z" fill="#CEFD35"/>
<path d="M328.883 310.354H322.043V316.941H328.883V310.354Z" fill="#CEFD35"/>
<path d="M328.883 322.399H322.043V328.987H328.883V322.399Z" fill="#CEFD35"/>
<path d="M328.883 119.508H322.043V126.095H328.883V119.508Z" fill="#CEFD35"/>
<path d="M328.883 131.365H322.043V137.953H328.883V131.365Z" fill="#CEFD35"/>
<path d="M31.6559 119.508H24.8164V126.095H31.6559V119.508Z" fill="#CEFD35"/>
<path d="M31.6559 131.365H24.8164V137.953H31.6559V131.365Z" fill="#CEFD35"/>
<path d="M31.6559 310.354H24.8164V316.941H31.6559V310.354Z" fill="#CEFD35"/>
<path d="M31.6559 322.399H24.8164V328.987H31.6559V322.399Z" fill="#CEFD35"/>
<path d="M229.808 310.354H222.969V316.941H229.808V310.354Z" fill="#CEFD35"/>
<path d="M229.808 322.399H222.969V328.987H229.808V322.399Z" fill="#CEFD35"/>
<path d="M229.808 119.508H222.969V126.095H229.808V119.508Z" fill="#CEFD35"/>
<path d="M229.808 131.365H222.969V137.953H229.808V131.365Z" fill="#CEFD35"/>
<path d="M130.732 47.9878H123.893V54.5752H130.732V47.9878Z" fill="#CEFD35"/>
<path d="M130.732 59.845H123.893V66.4324H130.732V59.845Z" fill="#CEFD35"/>
<path d="M130.732 238.834H123.893V245.421H130.732V238.834Z" fill="#CEFD35"/>
<path d="M130.732 250.691H123.893V257.278H130.732V250.691Z" fill="#CEFD35"/>
<path d="M328.883 238.834H322.043V245.421H328.883V238.834Z" fill="#CEFD35"/>
<path d="M328.883 250.691H322.043V257.278H328.883V250.691Z" fill="#CEFD35"/>
<path d="M328.883 47.9878H322.043V54.5752H328.883V47.9878Z" fill="#CEFD35"/>
<path d="M328.883 59.845H322.043V66.4324H328.883V59.845Z" fill="#CEFD35"/>
<path d="M31.6559 47.9878H24.8164V54.5752H31.6559V47.9878Z" fill="#CEFD35"/>
<path d="M31.6559 59.845H24.8164V66.4324H31.6559V59.845Z" fill="#CEFD35"/>
<path d="M31.6559 238.834H24.8164V245.421H31.6559V238.834Z" fill="#CEFD35"/>
<path d="M31.6559 250.691H24.8164V257.278H31.6559V250.691Z" fill="#CEFD35"/>
<path d="M229.808 238.834H222.969V245.421H229.808V238.834Z" fill="#CEFD35"/>
<path d="M229.808 250.691H222.969V257.278H229.808V250.691Z" fill="#CEFD35"/>
<path d="M229.808 47.9878H222.969V54.5752H229.808V47.9878Z" fill="#CEFD35"/>
<path d="M229.808 59.845H222.969V66.4324H229.808V59.845Z" fill="#CEFD35"/>
<path d="M130.732 143.411H123.893V149.998H130.732V143.411Z" fill="#CEFD35"/>
<path d="M130.732 155.268H123.893V161.855H130.732V155.268Z" fill="#CEFD35"/>
<path d="M130.732 334.257H123.893V340.844H130.732V334.257Z" fill="#CEFD35"/>
<path d="M130.732 346.114H123.893V352.701H130.732V346.114Z" fill="#CEFD35"/>
<path d="M328.883 334.257H322.043V340.844H328.883V334.257Z" fill="#CEFD35"/>
<path d="M328.883 346.114H322.043V352.701H328.883V346.114Z" fill="#CEFD35"/>
<path d="M328.883 143.411H322.043V149.998H328.883V143.411Z" fill="#CEFD35"/>
<path d="M328.883 155.268H322.043V161.855H328.883V155.268Z" fill="#CEFD35"/>
<path d="M31.6559 143.411H24.8164V149.998H31.6559V143.411Z" fill="#CEFD35"/>
<path d="M31.6559 155.268H24.8164V161.855H31.6559V155.268Z" fill="#CEFD35"/>
<path d="M31.6559 334.257H24.8164V340.844H31.6559V334.257Z" fill="#CEFD35"/>
<path d="M31.6559 346.114H24.8164V352.701H31.6559V346.114Z" fill="#CEFD35"/>
<path d="M229.808 334.257H222.969V340.844H229.808V334.257Z" fill="#CEFD35"/>
<path d="M229.808 346.114H222.969V352.701H229.808V346.114Z" fill="#CEFD35"/>
<path d="M229.808 143.411H222.969V149.998H229.808V143.411Z" fill="#CEFD35"/>
<path d="M229.808 155.268H222.969V161.855H229.808V155.268Z" fill="#CEFD35"/>
<path d="M130.732 71.7024H123.893V78.2898H130.732V71.7024Z" fill="#CEFD35"/>
<path d="M130.732 83.7478H123.893V90.3352H130.732V83.7478Z" fill="#CEFD35"/>
<path d="M130.732 262.737H123.893V269.324H130.732V262.737Z" fill="#CEFD35"/>
<path d="M130.732 274.594H123.893V281.181H130.732V274.594Z" fill="#CEFD35"/>
<path d="M328.883 262.737H322.043V269.324H328.883V262.737Z" fill="#CEFD35"/>
<path d="M328.883 274.594H322.043V281.181H328.883V274.594Z" fill="#CEFD35"/>
<path d="M328.883 71.7024H322.043V78.2898H328.883V71.7024Z" fill="#CEFD35"/>
<path d="M328.883 83.7478H322.043V90.3352H328.883V83.7478Z" fill="#CEFD35"/>
<path d="M31.6559 71.7024H24.8164V78.2898H31.6559V71.7024Z" fill="#CEFD35"/>
<path d="M31.6559 83.7478H24.8164V90.3352H31.6559V83.7478Z" fill="#CEFD35"/>
<path d="M31.6559 262.737H24.8164V269.324H31.6559V262.737Z" fill="#CEFD35"/>
<path d="M31.6559 274.594H24.8164V281.181H31.6559V274.594Z" fill="#CEFD35"/>
<path d="M229.808 262.737H222.969V269.324H229.808V262.737Z" fill="#CEFD35"/>
<path d="M229.808 274.594H222.969V281.181H229.808V274.594Z" fill="#CEFD35"/>
<path d="M229.808 71.7024H222.969V78.2898H229.808V71.7024Z" fill="#CEFD35"/>
<path d="M229.808 83.7478H222.969V90.3352H229.808V83.7478Z" fill="#CEFD35"/>
<path d="M130.732 167.125H123.893V173.713H130.732V167.125Z" fill="#CEFD35"/>
<path d="M130.732 179.171H123.893V185.758H130.732V179.171Z" fill="#CEFD35"/>
<path d="M130.732 358.159H123.893V364.747H130.732V358.159Z" fill="#CEFD35"/>
<path d="M130.732 370.017H123.893V376.604H130.732V370.017Z" fill="#CEFD35"/>
<path d="M328.883 358.159H322.043V364.747H328.883V358.159Z" fill="#CEFD35"/>
<path d="M328.883 370.017H322.043V376.604H328.883V370.017Z" fill="#CEFD35"/>
<path d="M328.883 167.125H322.043V173.713H328.883V167.125Z" fill="#CEFD35"/>
<path d="M328.883 179.171H322.043V185.758H328.883V179.171Z" fill="#CEFD35"/>
<path d="M31.6559 167.125H24.8164V173.713H31.6559V167.125Z" fill="#CEFD35"/>
<path d="M31.6559 179.171H24.8164V185.758H31.6559V179.171Z" fill="#CEFD35"/>
<path d="M31.6559 358.159H24.8164V364.747H31.6559V358.159Z" fill="#CEFD35"/>
<path d="M31.6559 370.017H24.8164V376.604H31.6559V370.017Z" fill="#CEFD35"/>
<path d="M229.808 358.159H222.969V364.747H229.808V358.159Z" fill="#CEFD35"/>
<path d="M229.808 370.017H222.969V376.604H229.808V370.017Z" fill="#CEFD35"/>
<path d="M229.808 167.125H222.969V173.713H229.808V167.125Z" fill="#CEFD35"/>
<path d="M229.808 179.171H222.969V185.758H229.808V179.171Z" fill="#CEFD35"/>
<path d="M143.043 0.182129H136.203V6.76951H143.043V0.182129Z" fill="#CEFD35"/>
<path d="M143.043 191.028H136.203V197.615H143.043V191.028Z" fill="#CEFD35"/>
<path d="M341.39 191.028H334.551V197.615H341.39V191.028Z" fill="#CEFD35"/>
<path d="M341.39 0.182129H334.551V6.76951H341.39V0.182129Z" fill="#CEFD35"/>
<path d="M43.9684 0.182129H37.1289V6.76951H43.9684V0.182129Z" fill="#CEFD35"/>
<path d="M43.9684 191.028H37.1289V197.615H43.9684V191.028Z" fill="#CEFD35"/>
<path d="M242.119 191.028H235.279V197.615H242.119V191.028Z" fill="#CEFD35"/>
<path d="M242.119 0.182129H235.279V6.76951H242.119V0.182129Z" fill="#CEFD35"/>
<path d="M143.043 95.6052H136.203V102.193H143.043V95.6052Z" fill="#CEFD35"/>
<path d="M143.043 286.451H136.203V293.039H143.043V286.451Z" fill="#CEFD35"/>
<path d="M341.39 286.451H334.551V293.039H341.39V286.451Z" fill="#CEFD35"/>
<path d="M341.39 95.6052H334.551V102.193H341.39V95.6052Z" fill="#CEFD35"/>
<path d="M43.9684 95.6052H37.1289V102.193H43.9684V95.6052Z" fill="#CEFD35"/>
<path d="M43.9684 286.451H37.1289V293.039H43.9684V286.451Z" fill="#CEFD35"/>
<path d="M242.119 286.451H235.279V293.039H242.119V286.451Z" fill="#CEFD35"/>
<path d="M242.119 95.6052H235.279V102.193H242.119V95.6052Z" fill="#CEFD35"/>
<path d="M143.043 24.085H136.203V30.6723H143.043V24.085Z" fill="#CEFD35"/>
<path d="M143.043 214.931H136.203V221.518H143.043V214.931Z" fill="#CEFD35"/>
<path d="M341.39 214.931H334.551V221.518H341.39V214.931Z" fill="#CEFD35"/>
<path d="M341.39 24.085H334.551V30.6723H341.39V24.085Z" fill="#CEFD35"/>
<path d="M43.9684 24.085H37.1289V30.6723H43.9684V24.085Z" fill="#CEFD35"/>
<path d="M43.9684 214.931H37.1289V221.518H43.9684V214.931Z" fill="#CEFD35"/>
<path d="M242.119 214.931H235.279V221.518H242.119V214.931Z" fill="#CEFD35"/>
<path d="M242.119 24.085H235.279V30.6723H242.119V24.085Z" fill="#CEFD35"/>
<path d="M143.043 119.508H136.203V126.095H143.043V119.508Z" fill="#CEFD35"/>
<path d="M143.043 310.354H136.203V316.941H143.043V310.354Z" fill="#CEFD35"/>
<path d="M341.39 310.354H334.551V316.941H341.39V310.354Z" fill="#CEFD35"/>
<path d="M341.39 119.508H334.551V126.095H341.39V119.508Z" fill="#CEFD35"/>
<path d="M43.9684 119.508H37.1289V126.095H43.9684V119.508Z" fill="#CEFD35"/>
<path d="M43.9684 310.354H37.1289V316.941H43.9684V310.354Z" fill="#CEFD35"/>
<path d="M242.119 310.354H235.279V316.941H242.119V310.354Z" fill="#CEFD35"/>
<path d="M242.119 119.508H235.279V126.095H242.119V119.508Z" fill="#CEFD35"/>
<path d="M143.043 47.9878H136.203V54.5752H143.043V47.9878Z" fill="#CEFD35"/>
<path d="M143.043 238.834H136.203V245.421H143.043V238.834Z" fill="#CEFD35"/>
<path d="M341.39 238.834H334.551V245.421H341.39V238.834Z" fill="#CEFD35"/>
<path d="M341.39 47.9878H334.551V54.5752H341.39V47.9878Z" fill="#CEFD35"/>
<path d="M43.9684 47.9878H37.1289V54.5752H43.9684V47.9878Z" fill="#CEFD35"/>
<path d="M43.9684 238.834H37.1289V245.421H43.9684V238.834Z" fill="#CEFD35"/>
<path d="M242.119 238.834H235.279V245.421H242.119V238.834Z" fill="#CEFD35"/>
<path d="M242.119 47.9878H235.279V54.5752H242.119V47.9878Z" fill="#CEFD35"/>
<path d="M143.043 143.411H136.203V149.998H143.043V143.411Z" fill="#CEFD35"/>
<path d="M143.043 334.257H136.203V340.844H143.043V334.257Z" fill="#CEFD35"/>
<path d="M341.39 334.257H334.551V340.844H341.39V334.257Z" fill="#CEFD35"/>
<path d="M341.39 143.411H334.551V149.998H341.39V143.411Z" fill="#CEFD35"/>
<path d="M43.9684 143.411H37.1289V149.998H43.9684V143.411Z" fill="#CEFD35"/>
<path d="M43.9684 334.257H37.1289V340.844H43.9684V334.257Z" fill="#CEFD35"/>
<path d="M242.119 334.257H235.279V340.844H242.119V334.257Z" fill="#CEFD35"/>
<path d="M242.119 143.411H235.279V149.998H242.119V143.411Z" fill="#CEFD35"/>
<path d="M143.043 71.7024H136.203V78.2898H143.043V71.7024Z" fill="#CEFD35"/>
<path d="M143.043 262.737H136.203V269.324H143.043V262.737Z" fill="#CEFD35"/>
<path d="M341.39 262.737H334.551V269.324H341.39V262.737Z" fill="#CEFD35"/>
<path d="M341.39 71.7024H334.551V78.2898H341.39V71.7024Z" fill="#CEFD35"/>
<path d="M43.9684 71.7024H37.1289V78.2898H43.9684V71.7024Z" fill="#CEFD35"/>
<path d="M43.9684 262.737H37.1289V269.324H43.9684V262.737Z" fill="#CEFD35"/>
<path d="M242.119 262.737H235.279V269.324H242.119V262.737Z" fill="#CEFD35"/>
<path d="M242.119 71.7024H235.279V78.2898H242.119V71.7024Z" fill="#CEFD35"/>
<path d="M143.043 167.125H136.203V173.713H143.043V167.125Z" fill="#CEFD35"/>
<path d="M143.043 358.159H136.203V364.747H143.043V358.159Z" fill="#CEFD35"/>
<path d="M341.39 358.159H334.551V364.747H341.39V358.159Z" fill="#CEFD35"/>
<path d="M341.39 167.125H334.551V173.713H341.39V167.125Z" fill="#CEFD35"/>
<path d="M43.9684 167.125H37.1289V173.713H43.9684V167.125Z" fill="#CEFD35"/>
<path d="M43.9684 358.159H37.1289V364.747H43.9684V358.159Z" fill="#CEFD35"/>
<path d="M242.119 358.159H235.279V364.747H242.119V358.159Z" fill="#CEFD35"/>
<path d="M242.119 167.125H235.279V173.713H242.119V167.125Z" fill="#CEFD35"/>
<path d="M143.043 12.0393H136.203V18.6267H143.043V12.0393Z" fill="#CEFD35"/>
<path d="M143.043 203.074H136.203V209.661H143.043V203.074Z" fill="#CEFD35"/>
<path d="M341.39 203.074H334.551V209.661H341.39V203.074Z" fill="#CEFD35"/>
<path d="M341.39 12.0393H334.551V18.6267H341.39V12.0393Z" fill="#CEFD35"/>
<path d="M43.9684 12.0393H37.1289V18.6267H43.9684V12.0393Z" fill="#CEFD35"/>
<path d="M43.9684 203.074H37.1289V209.661H43.9684V203.074Z" fill="#CEFD35"/>
<path d="M242.119 203.074H235.279V209.661H242.119V203.074Z" fill="#CEFD35"/>
<path d="M242.119 12.0393H235.279V18.6267H242.119V12.0393Z" fill="#CEFD35"/>
<path d="M143.043 107.651H136.203V114.238H143.043V107.651Z" fill="#CEFD35"/>
<path d="M143.043 298.497H136.203V305.084H143.043V298.497Z" fill="#CEFD35"/>
<path d="M341.39 298.497H334.551V305.084H341.39V298.497Z" fill="#CEFD35"/>
<path d="M341.39 107.651H334.551V114.238H341.39V107.651Z" fill="#CEFD35"/>
<path d="M43.9684 107.651H37.1289V114.238H43.9684V107.651Z" fill="#CEFD35"/>
<path d="M43.9684 298.497H37.1289V305.084H43.9684V298.497Z" fill="#CEFD35"/>
<path d="M242.119 298.497H235.279V305.084H242.119V298.497Z" fill="#CEFD35"/>
<path d="M242.119 107.651H235.279V114.238H242.119V107.651Z" fill="#CEFD35"/>
<path d="M143.043 35.9421H136.203V42.5295H143.043V35.9421Z" fill="#CEFD35"/>
<path d="M143.043 226.788H136.203V233.375H143.043V226.788Z" fill="#CEFD35"/>
<path d="M341.39 226.788H334.551V233.375H341.39V226.788Z" fill="#CEFD35"/>
<path d="M341.39 35.9421H334.551V42.5295H341.39V35.9421Z" fill="#CEFD35"/>
<path d="M43.9684 35.9421H37.1289V42.5295H43.9684V35.9421Z" fill="#CEFD35"/>
<path d="M43.9684 226.788H37.1289V233.375H43.9684V226.788Z" fill="#CEFD35"/>
<path d="M242.119 226.788H235.279V233.375H242.119V226.788Z" fill="#CEFD35"/>
<path d="M242.119 35.9421H235.279V42.5295H242.119V35.9421Z" fill="#CEFD35"/>
<path d="M143.043 131.365H136.203V137.953H143.043V131.365Z" fill="#CEFD35"/>
<path d="M143.043 322.399H136.203V328.987H143.043V322.399Z" fill="#CEFD35"/>
<path d="M341.39 322.399H334.551V328.987H341.39V322.399Z" fill="#CEFD35"/>
<path d="M341.39 131.365H334.551V137.953H341.39V131.365Z" fill="#CEFD35"/>
<path d="M43.9684 131.365H37.1289V137.953H43.9684V131.365Z" fill="#CEFD35"/>
<path d="M43.9684 322.399H37.1289V328.987H43.9684V322.399Z" fill="#CEFD35"/>
<path d="M242.119 322.399H235.279V328.987H242.119V322.399Z" fill="#CEFD35"/>
<path d="M242.119 131.365H235.279V137.953H242.119V131.365Z" fill="#CEFD35"/>
<path d="M143.043 59.845H136.203V66.4324H143.043V59.845Z" fill="#CEFD35"/>
<path d="M143.043 250.691H136.203V257.278H143.043V250.691Z" fill="#CEFD35"/>
<path d="M341.39 250.691H334.551V257.278H341.39V250.691Z" fill="#CEFD35"/>
<path d="M341.39 59.845H334.551V66.4324H341.39V59.845Z" fill="#CEFD35"/>
<path d="M43.9684 59.845H37.1289V66.4324H43.9684V59.845Z" fill="#CEFD35"/>
<path d="M43.9684 250.691H37.1289V257.278H43.9684V250.691Z" fill="#CEFD35"/>
<path d="M242.119 250.691H235.279V257.278H242.119V250.691Z" fill="#CEFD35"/>
<path d="M242.119 59.845H235.279V66.4324H242.119V59.845Z" fill="#CEFD35"/>
<path d="M143.043 155.268H136.203V161.855H143.043V155.268Z" fill="#CEFD35"/>
<path d="M143.043 346.114H136.203V352.701H143.043V346.114Z" fill="#CEFD35"/>
<path d="M341.39 346.114H334.551V352.701H341.39V346.114Z" fill="#CEFD35"/>
<path d="M341.39 155.268H334.551V161.855H341.39V155.268Z" fill="#CEFD35"/>
<path d="M43.9684 155.268H37.1289V161.855H43.9684V155.268Z" fill="#CEFD35"/>
<path d="M43.9684 346.114H37.1289V352.701H43.9684V346.114Z" fill="#CEFD35"/>
<path d="M242.119 346.114H235.279V352.701H242.119V346.114Z" fill="#CEFD35"/>
<path d="M242.119 155.268H235.279V161.855H242.119V155.268Z" fill="#CEFD35"/>
<path d="M143.043 83.7478H136.203V90.3352H143.043V83.7478Z" fill="#CEFD35"/>
<path d="M143.043 274.594H136.203V281.181H143.043V274.594Z" fill="#CEFD35"/>
<path d="M341.39 274.594H334.551V281.181H341.39V274.594Z" fill="#CEFD35"/>
<path d="M341.39 83.7478H334.551V90.3352H341.39V83.7478Z" fill="#CEFD35"/>
<path d="M43.9684 83.7478H37.1289V90.3352H43.9684V83.7478Z" fill="#CEFD35"/>
<path d="M43.9684 274.594H37.1289V281.181H43.9684V274.594Z" fill="#CEFD35"/>
<path d="M242.119 274.594H235.279V281.181H242.119V274.594Z" fill="#CEFD35"/>
<path d="M242.119 83.7478H235.279V90.3352H242.119V83.7478Z" fill="#CEFD35"/>
<path d="M143.043 179.171H136.203V185.758H143.043V179.171Z" fill="#CEFD35"/>
<path d="M143.043 370.017H136.203V376.604H143.043V370.017Z" fill="#CEFD35"/>
<path d="M341.39 370.017H334.551V376.604H341.39V370.017Z" fill="#CEFD35"/>
<path d="M341.39 179.171H334.551V185.758H341.39V179.171Z" fill="#CEFD35"/>
<path d="M43.9684 179.171H37.1289V185.758H43.9684V179.171Z" fill="#CEFD35"/>
<path d="M43.9684 370.017H37.1289V376.604H43.9684V370.017Z" fill="#CEFD35"/>
<path d="M242.119 370.017H235.279V376.604H242.119V370.017Z" fill="#CEFD35"/>
<path d="M242.119 179.171H235.279V185.758H242.119V179.171Z" fill="#CEFD35"/>
</svg>
